<svg width="138" height="38" viewBox="0 0 138 38" fill="none" xmlns="http://www.w3.org/2000/svg">
<g clip-path="url(#clip0_3241_10)">
<path d="M0.155273 29.4453L13.2632 0.289062H18.6109L31.7553 29.4453H26.0887L14.8258 3.17736H16.9897L5.72686 29.4453H0.155273Z" fill="white"/>
<path fill-rule="evenodd" clip-rule="evenodd" d="M11.3909 16.2083C11.8638 16.1807 12.316 16.2197 12.8386 16.2729C14.413 16.433 15.6355 16.9249 16.7882 17.5204C17.9757 18.1339 19.0437 18.9285 20.7103 19.2036C21.9129 19.4021 22.7503 19.5312 23.5028 19.3226C24.1962 19.1305 24.7633 18.6258 25.5506 17.8173L27.1097 16.2165L30.3115 19.3347L28.7524 20.9355C27.2439 22.4844 26.0246 23.2615 24.6963 23.6296C23.4272 23.9813 22.0106 23.948 19.9825 23.6132C18.4173 23.3548 17.2093 22.8153 16.0857 22.2185C14.9402 21.61 13.9393 20.8771 12.3865 20.7192C10.694 20.5471 9.53032 21.2559 8.98438 21.7121L9.39593 20.648L11.3909 16.2083Z" fill="url(#paint0_linear_3241_10)"/>
<path d="M35.8809 29.4237V7.35345H40.8006V13.429L40.2218 11.6518C40.8832 10.1639 41.9168 9.00665 43.3637 8.26271C44.7694 7.47744 46.5471 7.10547 48.6555 7.10547V12.0238C48.4075 11.9824 48.2007 11.9411 48.0354 11.9411C47.8287 11.8998 47.6633 11.8998 47.4566 11.8998C45.5135 11.8998 43.9425 12.4784 42.785 13.6356C41.6274 14.7515 41.0486 16.4461 41.0486 18.7192V29.4237H35.8809Z" fill="white"/>
<path d="M52.582 29.4237V7.35345H57.5017V13.429L56.9229 11.6518C57.5844 10.1639 58.6179 9.00665 60.0649 8.26271C61.4705 7.47744 63.2482 7.10547 65.3567 7.10547V12.0238C65.1086 11.9824 64.9019 11.9411 64.7365 11.9411C64.5298 11.8998 64.3644 11.8998 64.1577 11.8998C62.2147 11.8998 60.6437 12.4784 59.4861 13.6356C58.3285 14.7515 57.7498 16.4461 57.7498 18.7192V29.4237H52.582Z" fill="white"/>
<path d="M78.9999 29.713C76.7674 29.713 74.7417 29.217 72.964 28.2251C71.1863 27.2745 69.7806 25.9106 68.7884 24.2161C67.7549 22.5216 67.2588 20.5791 67.2588 18.3886C67.2588 16.1568 67.7549 14.2142 68.7884 12.5197C69.822 10.8252 71.1863 9.50261 72.964 8.55202C74.7417 7.5601 76.7261 7.10547 78.9999 7.10547C81.2737 7.10547 83.3408 7.5601 85.1185 8.55202C86.8548 9.50261 88.2604 10.8252 89.294 12.5197C90.2862 14.2142 90.7823 16.1568 90.7823 18.3886C90.7823 20.5791 90.2862 22.5216 89.294 24.2161C88.2604 25.952 86.8962 27.2745 85.0771 28.2251C83.2994 29.217 81.2737 29.713 78.9999 29.713ZM78.9999 25.2907C80.2815 25.2907 81.3977 25.0014 82.3899 24.4641C83.3821 23.8855 84.1676 23.1002 84.7051 22.0669C85.2838 20.9924 85.5732 19.7938 85.5732 18.3886C85.5732 16.942 85.2838 15.7435 84.7051 14.7102C84.1676 13.677 83.3821 12.8917 82.3899 12.3131C81.3977 11.7758 80.2815 11.4865 79.0412 11.4865C77.801 11.4865 76.6847 11.7758 75.6925 12.3131C74.7003 12.8917 73.9148 13.677 73.336 14.7102C72.7573 15.7435 72.4679 16.942 72.4679 18.3886C72.4679 19.7938 72.7573 20.9924 73.336 22.0669C73.9148 23.1002 74.7003 23.8855 75.6925 24.4641C76.6434 25.0014 77.7596 25.2907 78.9999 25.2907Z" fill="white"/>
<path d="M96.281 37.733C95.2061 37.733 94.1312 37.5263 93.0563 37.1957C91.9814 36.8237 91.1132 36.3278 90.3691 35.7078L92.4362 31.9055C92.9323 32.4014 93.5524 32.7734 94.2139 33.0214C94.8754 33.3107 95.5368 33.4347 96.2396 33.4347C97.1492 33.4347 97.9347 33.1867 98.5134 32.7321C99.0922 32.2774 99.6297 31.4922 100.126 30.3762L101.407 27.4831L101.821 26.8632L110.172 7.35547H115.133L104.797 31.2028C104.136 32.856 103.35 34.1786 102.523 35.1292C101.655 36.0798 100.704 36.7411 99.7124 37.1544C98.6788 37.5263 97.5212 37.733 96.281 37.733ZM100.828 30.2109L90.8652 7.35547H96.2396L104.342 26.4086L100.828 30.2109Z" fill="white"/>
<path d="M126.047 29.713C123.815 29.713 121.789 29.217 120.011 28.2251C118.233 27.2745 116.828 25.9106 115.836 24.2161C114.802 22.5216 114.306 20.5791 114.306 18.3886C114.306 16.1568 114.802 14.2142 115.836 12.5197C116.869 10.8252 118.233 9.50261 120.011 8.55202C121.789 7.5601 123.773 7.10547 126.047 7.10547C128.321 7.10547 130.388 7.5601 132.166 8.55202C133.902 9.50261 135.308 10.8252 136.341 12.5197C137.333 14.2142 137.829 16.1568 137.829 18.3886C137.829 20.5791 137.333 22.5216 136.341 24.2161C135.308 25.952 133.943 27.2745 132.124 28.2251C130.347 29.217 128.321 29.713 126.047 29.713ZM126.047 25.2907C127.329 25.2907 128.445 25.0014 129.437 24.4641C130.429 23.8855 131.215 23.1002 131.752 22.0669C132.331 20.9924 132.62 19.7938 132.62 18.3886C132.62 16.942 132.331 15.7435 131.752 14.7102C131.215 13.677 130.429 12.8917 129.437 12.3131C128.445 11.7758 127.329 11.4865 126.088 11.4865C124.848 11.4865 123.732 11.7758 122.74 12.3131C121.747 12.8917 120.962 13.677 120.383 14.7102C119.804 15.7435 119.515 16.942 119.515 18.3886C119.515 19.7938 119.804 20.9924 120.383 22.0669C120.962 23.1002 121.747 23.8855 122.74 24.4641C123.691 25.0014 124.807 25.2907 126.047 25.2907Z" fill="white"/>
</g>
<defs>
<linearGradient id="paint0_linear_3241_10" x1="11.6368" y1="18.9168" x2="30.7895" y2="19.6121" gradientUnits="userSpaceOnUse">
<stop stop-color="white"/>
<stop offset="0.67" stop-color="white"/>
<stop offset="1" stop-color="white"/>
</linearGradient>
<clipPath id="clip0_3241_10">
<rect width="138" height="38" fill="white"/>
</clipPath>
</defs>
</svg>
