<?xml version="1.0" encoding="UTF-8" standalone="no"?><!DOCTYPE svg PUBLIC "-//W3C//DTD SVG 1.1//EN" "http://www.w3.org/Graphics/SVG/1.1/DTD/svg11.dtd"><svg width="100%" height="100%" viewBox="0 0 4000 3200" version="1.1" xmlns="http://www.w3.org/2000/svg" xmlns:xlink="http://www.w3.org/1999/xlink" xml:space="preserve" xmlns:serif="http://www.serif.com/" style="fill-rule:evenodd;clip-rule:evenodd;stroke-linecap:round;stroke-linejoin:round;stroke-miterlimit:1.5;"><rect x="1235.48" y="106.709" width="2427.53" height="2983.74" style="fill:#395864;"/><path d="M1430.67,437.437l78.008,-175l40.05,0l78.157,175l-42.293,0l-64.196,-154.391l16.063,0l-64.191,154.391l-41.598,0Zm39.164,-37.437l10.625,-30.735l90.156,0l10.774,30.735l-111.555,-0Z" style="fill:#fff8f8;fill-rule:nonzero;"/><path d="M1623.09,437.437l-0,-134.488l37.156,-0l0,38.082l-5.129,-10.996c3.964,-9.56 10.353,-16.78 19.168,-21.66c8.815,-4.881 19.59,-7.321 32.324,-7.321l0,35.969c-1.698,-0.232 -3.228,-0.406 -4.591,-0.521c-1.364,-0.116 -2.743,-0.174 -4.139,-0.174c-10.813,-0 -19.481,3.063 -26.004,9.189c-6.523,6.126 -9.785,15.612 -9.785,28.455l-0,63.465l-39,0Z" style="fill:#fff8f8;fill-rule:nonzero;"/><path d="M1716.34,437.437l-0,-134.488l37.156,-0l0,38.082l-5.129,-10.996c3.964,-9.56 10.353,-16.78 19.168,-21.66c8.815,-4.881 19.59,-7.321 32.324,-7.321l0,35.969c-1.698,-0.232 -3.228,-0.406 -4.591,-0.521c-1.364,-0.116 -2.743,-0.174 -4.139,-0.174c-10.813,-0 -19.481,3.063 -26.004,9.189c-6.523,6.126 -9.785,15.612 -9.785,28.455l-0,63.465l-39,0Z" style="fill:#fff8f8;fill-rule:nonzero;"/><path d="M1872.14,439.336c-14.248,-0 -26.914,-2.967 -37.998,-8.901c-11.085,-5.933 -19.817,-14.117 -26.198,-24.551c-6.38,-10.433 -9.57,-22.356 -9.57,-35.767c0,-13.513 3.2,-25.455 9.6,-35.824c6.399,-10.37 15.121,-18.502 26.164,-24.397c11.043,-5.894 23.71,-8.842 38.002,-8.842c14.294,0 27.007,2.944 38.138,8.832c11.132,5.888 19.853,14.011 26.164,24.369c6.312,10.359 9.467,22.314 9.467,35.866c0,13.445 -3.149,25.375 -9.447,35.791c-6.298,10.415 -15.032,18.59 -26.201,24.523c-11.17,5.934 -23.877,8.901 -38.121,8.901Zm-0,-31.934c6.58,-0 12.442,-1.478 17.586,-4.434c5.143,-2.955 9.218,-7.254 12.224,-12.896c3.007,-5.642 4.51,-12.291 4.51,-19.947c-0,-7.797 -1.503,-14.459 -4.51,-19.985c-3.006,-5.526 -7.081,-9.767 -12.224,-12.722c-5.144,-2.956 -10.98,-4.434 -17.508,-4.434c-6.531,-0 -12.369,1.478 -17.512,4.434c-5.143,2.955 -9.243,7.196 -12.299,12.722c-3.056,5.526 -4.584,12.188 -4.584,19.985c0,7.656 1.528,14.305 4.584,19.947c3.056,5.642 7.153,9.941 12.289,12.896c5.137,2.956 10.951,4.434 17.444,4.434Z" style="fill:#fff8f8;fill-rule:nonzero;"/><path d="M1973.96,487.836c-6.896,-0 -13.766,-1.075 -20.611,-3.225c-6.846,-2.15 -12.501,-5.158 -16.967,-9.025l14.375,-27.739c3.034,2.67 6.493,4.771 10.379,6.305c3.885,1.534 7.797,2.301 11.734,2.301c5.401,-0 9.737,-1.293 13.008,-3.879c3.271,-2.586 6.191,-6.867 8.762,-12.844l7.109,-16.461l3.094,-4.293l48.277,-116.027l37.359,-0l-60.625,142.82c-4.398,10.789 -9.386,19.257 -14.963,25.402c-5.576,6.146 -11.753,10.46 -18.529,12.942c-6.776,2.482 -14.243,3.723 -22.402,3.723Zm23.055,-45.204l-59.954,-139.683l40.204,-0l46.578,112.535l-26.828,27.148Z" style="fill:#fff8f8;fill-rule:nonzero;"/><path d="M2144.14,439.336c-14.248,-0 -26.914,-2.967 -37.998,-8.901c-11.085,-5.933 -19.817,-14.117 -26.198,-24.551c-6.38,-10.433 -9.57,-22.356 -9.57,-35.767c0,-13.513 3.2,-25.455 9.6,-35.824c6.399,-10.37 15.121,-18.502 26.164,-24.397c11.043,-5.894 23.71,-8.842 38.002,-8.842c14.294,0 27.007,2.944 38.138,8.832c11.132,5.888 19.853,14.011 26.164,24.369c6.312,10.359 9.467,22.314 9.467,35.866c0,13.445 -3.149,25.375 -9.447,35.791c-6.298,10.415 -15.032,18.59 -26.201,24.523c-11.17,5.934 -23.877,8.901 -38.121,8.901Zm-0,-31.934c6.58,-0 12.442,-1.478 17.586,-4.434c5.143,-2.955 9.218,-7.254 12.224,-12.896c3.007,-5.642 4.51,-12.291 4.51,-19.947c-0,-7.797 -1.503,-14.459 -4.51,-19.985c-3.006,-5.526 -7.081,-9.767 -12.224,-12.722c-5.144,-2.956 -10.98,-4.434 -17.508,-4.434c-6.531,-0 -12.369,1.478 -17.512,4.434c-5.143,2.955 -9.243,7.196 -12.299,12.722c-3.056,5.526 -4.584,12.188 -4.584,19.985c0,7.656 1.528,14.305 4.584,19.947c3.056,5.642 7.153,9.941 12.289,12.896c5.137,2.956 10.951,4.434 17.444,4.434Z" style="fill:#fff8f8;fill-rule:nonzero;"/><path d="M2158.68,812.192c-5.374,-0 -10.175,-1.159 -14.402,-3.477c-4.227,-2.318 -7.539,-5.514 -9.937,-9.588c-2.397,-4.073 -3.596,-8.733 -3.596,-13.979c0,-5.302 1.199,-9.977 3.596,-14.023c2.398,-4.046 5.71,-7.226 9.937,-9.538c4.227,-2.313 9.028,-3.469 14.402,-3.469c4.803,0 9.089,0.953 12.857,2.86c3.768,1.907 6.696,4.739 8.783,8.496l-7.312,4.625c-1.719,-2.564 -3.825,-4.468 -6.318,-5.712c-2.493,-1.244 -5.192,-1.866 -8.095,-1.866c-3.453,0 -6.552,0.764 -9.297,2.29c-2.746,1.527 -4.91,3.684 -6.493,6.474c-1.582,2.789 -2.374,6.076 -2.374,9.863c0,3.786 0.792,7.074 2.374,9.862c1.583,2.789 3.747,4.949 6.493,6.481c2.745,1.532 5.844,2.297 9.297,2.297c2.903,0 5.602,-0.61 8.095,-1.83c2.493,-1.22 4.599,-3.136 6.318,-5.746l7.312,4.623c-2.087,3.701 -5.015,6.519 -8.783,8.454c-3.768,1.935 -8.054,2.903 -12.857,2.903Z" style="fill:#fff8f8;fill-rule:nonzero;"/><path d="M2211.79,812.192c-5.282,-0 -9.995,-1.159 -14.14,-3.477c-4.145,-2.318 -7.416,-5.521 -9.814,-9.611c-2.397,-4.09 -3.596,-8.746 -3.596,-13.97c0,-5.293 1.204,-9.961 3.612,-14.004c2.408,-4.043 5.673,-7.223 9.795,-9.538c4.121,-2.316 8.836,-3.474 14.143,-3.474c5.307,0 10.039,1.156 14.198,3.468c4.159,2.312 7.424,5.486 9.795,9.523c2.37,4.036 3.556,8.711 3.556,14.025c-0,5.245 -1.182,9.907 -3.546,13.986c-2.363,4.079 -5.635,7.277 -9.814,9.595c-4.18,2.318 -8.909,3.477 -14.189,3.477Zm0,-8.404c3.443,0 6.506,-0.765 9.189,-2.297c2.684,-1.532 4.8,-3.709 6.35,-6.531c1.55,-2.822 2.325,-6.096 2.325,-9.823c0,-3.779 -0.775,-7.063 -2.325,-9.852c-1.55,-2.79 -3.666,-4.947 -6.35,-6.474c-2.683,-1.526 -5.732,-2.29 -9.146,-2.29c-3.415,0 -6.462,0.764 -9.14,2.29c-2.679,1.527 -4.81,3.684 -6.393,6.474c-1.582,2.789 -2.374,6.073 -2.374,9.852c0,3.727 0.792,7.001 2.374,9.823c1.583,2.822 3.712,4.999 6.386,6.531c2.675,1.532 5.71,2.297 9.104,2.297Z" style="fill:#fff8f8;fill-rule:nonzero;"/><path d="M2278.42,758.118c4.323,0 8.131,0.831 11.423,2.492c3.292,1.662 5.887,4.191 7.784,7.589c1.897,3.397 2.845,7.71 2.845,12.939l0,30.5l-9.6,0l0,-29.401c0,-5.162 -1.253,-9.043 -3.76,-11.645c-2.507,-2.601 -6.046,-3.902 -10.618,-3.902c-3.351,-0 -6.294,0.677 -8.829,2.032c-2.535,1.355 -4.486,3.33 -5.853,5.927c-1.367,2.596 -2.051,5.812 -2.051,9.649l0,27.34l-9.6,0l0,-52.967l9.178,0l0,14.278l-1.551,-3.762c1.758,-3.52 4.434,-6.245 8.026,-8.174c3.593,-1.93 7.795,-2.895 12.606,-2.895Z" style="fill:#fff8f8;fill-rule:nonzero;"/><path d="M2335.16,812.192c-5.361,-0 -9.503,-1.421 -12.424,-4.261c-2.922,-2.84 -4.382,-6.948 -4.382,-12.324l-0,-48.573l9.6,-0l-0,48.242c-0,2.822 0.717,5.003 2.151,6.542c1.435,1.54 3.491,2.309 6.169,2.309c2.96,0 5.433,-0.813 7.417,-2.44l3.005,6.889c-1.425,1.21 -3.167,2.116 -5.225,2.716c-2.058,0.6 -4.162,0.9 -6.311,0.9Zm-25.877,-45.624l0,-7.897l33.891,0l0,7.897l-33.891,0Z" style="fill:#fff8f8;fill-rule:nonzero;"/><path d="M2355.76,811.638l0,-52.967l9.178,0l0,14.385l-0.961,-3.594c1.513,-3.689 3.991,-6.501 7.435,-8.438c3.443,-1.937 7.714,-2.906 12.812,-2.906l0,9.347c-0.404,-0.056 -0.783,-0.098 -1.137,-0.127c-0.353,-0.028 -0.709,-0.042 -1.068,-0.042c-5.13,0 -9.189,1.533 -12.177,4.599c-2.988,3.067 -4.482,7.526 -4.482,13.379l0,26.364l-9.6,0Z" style="fill:#fff8f8;fill-rule:nonzero;"/><path d="M2415.19,812.192c-5.282,-0 -9.995,-1.159 -14.14,-3.477c-4.145,-2.318 -7.416,-5.521 -9.814,-9.611c-2.397,-4.09 -3.596,-8.746 -3.596,-13.97c0,-5.293 1.204,-9.961 3.612,-14.004c2.408,-4.043 5.673,-7.223 9.795,-9.538c4.121,-2.316 8.836,-3.474 14.143,-3.474c5.307,0 10.039,1.156 14.198,3.468c4.159,2.312 7.424,5.486 9.795,9.523c2.37,4.036 3.556,8.711 3.556,14.025c-0,5.245 -1.182,9.907 -3.546,13.986c-2.363,4.079 -5.635,7.277 -9.814,9.595c-4.18,2.318 -8.909,3.477 -14.189,3.477Zm0,-8.404c3.443,0 6.506,-0.765 9.189,-2.297c2.684,-1.532 4.8,-3.709 6.35,-6.531c1.55,-2.822 2.325,-6.096 2.325,-9.823c0,-3.779 -0.775,-7.063 -2.325,-9.852c-1.55,-2.79 -3.666,-4.947 -6.35,-6.474c-2.683,-1.526 -5.732,-2.29 -9.146,-2.29c-3.415,0 -6.462,0.764 -9.14,2.29c-2.679,1.527 -4.81,3.684 -6.393,6.474c-1.582,2.789 -2.374,6.073 -2.374,9.852c0,3.727 0.792,7.001 2.374,9.823c1.583,2.822 3.712,4.999 6.386,6.531c2.675,1.532 5.71,2.297 9.104,2.297Z" style="fill:#fff8f8;fill-rule:nonzero;"/><rect x="2453.56" y="737.438" width="9.6" height="74.2" style="fill:#fff8f8;fill-rule:nonzero;"/><path d="M2531.62,812.192c-4.395,-0 -8.417,-1.004 -12.066,-3.012c-3.649,-2.008 -6.557,-5.021 -8.723,-9.039c-2.167,-4.018 -3.25,-9.011 -3.25,-14.978c-0,-6.034 1.055,-11.046 3.165,-15.036c2.111,-3.989 4.99,-6.988 8.639,-8.996c3.649,-2.009 7.727,-3.013 12.235,-3.013c5.184,0 9.789,1.131 13.814,3.392c4.025,2.262 7.194,5.415 9.506,9.461c2.313,4.046 3.469,8.777 3.469,14.192c-0,5.405 -1.156,10.13 -3.469,14.175c-2.312,4.046 -5.481,7.2 -9.506,9.461c-4.025,2.262 -8.63,3.393 -13.814,3.393Zm-28.055,18.846l0,-72.367l9.178,0l0,14.272l-0.578,12.32l1,12.321l0,33.454l-9.6,0Zm27.295,-27.25c3.387,0 6.422,-0.763 9.106,-2.289c2.684,-1.527 4.814,-3.701 6.392,-6.523c1.578,-2.822 2.366,-6.093 2.366,-9.813c0,-3.787 -0.788,-7.075 -2.366,-9.864c-1.578,-2.788 -3.708,-4.948 -6.392,-6.48c-2.684,-1.532 -5.719,-2.298 -9.106,-2.298c-3.386,0 -6.421,0.766 -9.105,2.298c-2.684,1.532 -4.815,3.692 -6.392,6.48c-1.578,2.789 -2.367,6.077 -2.367,9.864c0,3.72 0.789,6.991 2.367,9.813c1.577,2.822 3.708,4.996 6.392,6.523c2.684,1.526 5.719,2.289 9.105,2.289Z" style="fill:#fff8f8;fill-rule:nonzero;"/><rect x="2570.66" y="737.438" width="9.6" height="74.2" style="fill:#fff8f8;fill-rule:nonzero;"/><path d="M2628.49,811.638l0,-11.201l-0.423,-2.124l-0,-19.123c-0,-4.049 -1.189,-7.187 -3.567,-9.413c-2.377,-2.227 -5.923,-3.34 -10.636,-3.34c-3.192,-0 -6.275,0.512 -9.249,1.535c-2.975,1.023 -5.511,2.405 -7.609,4.145l-4.019,-7.143c2.748,-2.22 6.044,-3.918 9.887,-5.093c3.843,-1.175 7.867,-1.763 12.071,-1.763c7.239,0 12.835,1.773 16.791,5.318c3.955,3.545 5.932,8.96 5.932,16.245l0,31.957l-9.178,0Zm-17.336,0.554c-3.979,-0 -7.448,-0.657 -10.407,-1.969c-2.958,-1.313 -5.239,-3.153 -6.841,-5.522c-1.602,-2.369 -2.403,-5.071 -2.403,-8.106c-0,-2.862 0.682,-5.455 2.045,-7.78c1.364,-2.325 3.604,-4.194 6.721,-5.606c3.117,-1.413 7.286,-2.119 12.506,-2.119l16.815,-0l0,6.967l-16.409,0c-4.741,0 -7.953,0.793 -9.637,2.378c-1.684,1.586 -2.526,3.521 -2.526,5.805c0,2.628 1.04,4.712 3.118,6.252c2.079,1.54 4.953,2.31 8.623,2.31c3.593,0 6.738,-0.798 9.437,-2.394c2.698,-1.596 4.655,-3.932 5.871,-7.006l1.845,6.621c-1.287,3.176 -3.526,5.665 -6.717,7.466c-3.191,1.802 -7.204,2.703 -12.041,2.703Z" style="fill:#fff8f8;fill-rule:nonzero;"/><path d="M2681.32,758.118c4.323,0 8.131,0.831 11.423,2.492c3.292,1.662 5.887,4.191 7.784,7.589c1.897,3.397 2.845,7.71 2.845,12.939l0,30.5l-9.6,0l0,-29.401c0,-5.162 -1.253,-9.043 -3.76,-11.645c-2.507,-2.601 -6.046,-3.902 -10.618,-3.902c-3.351,-0 -6.294,0.677 -8.829,2.032c-2.535,1.355 -4.486,3.33 -5.853,5.927c-1.367,2.596 -2.051,5.812 -2.051,9.649l0,27.34l-9.6,0l0,-52.967l9.178,0l0,14.278l-1.551,-3.762c1.758,-3.52 4.434,-6.245 8.026,-8.174c3.593,-1.93 7.795,-2.895 12.606,-2.895Z" style="fill:#fff8f8;fill-rule:nonzero;"/><path d="M2743.45,812.192c-5.676,-0 -10.658,-1.159 -14.946,-3.477c-4.289,-2.318 -7.62,-5.516 -9.995,-9.595c-2.374,-4.079 -3.562,-8.737 -3.562,-13.972c0,-5.246 1.146,-9.904 3.439,-13.973c2.292,-4.069 5.451,-7.263 9.479,-9.58c4.027,-2.318 8.589,-3.477 13.685,-3.477c5.096,0 9.616,1.14 13.559,3.419c3.943,2.279 7.035,5.465 9.276,9.557c2.24,4.092 3.361,8.863 3.361,14.313c-0,0.404 -0.014,0.879 -0.042,1.424c-0.029,0.546 -0.071,1.054 -0.127,1.526l-45.111,0l0,-6.967l40.042,-0l-3.84,2.428c0.056,-3.407 -0.657,-6.432 -2.14,-9.075c-1.483,-2.643 -3.509,-4.716 -6.077,-6.219c-2.568,-1.504 -5.535,-2.256 -8.901,-2.256c-3.355,0 -6.333,0.752 -8.935,2.256c-2.601,1.503 -4.627,3.59 -6.076,6.261c-1.45,2.671 -2.174,5.766 -2.174,9.286l-0,1.583c-0,3.551 0.808,6.695 2.424,9.433c1.616,2.737 3.886,4.872 6.811,6.404c2.924,1.532 6.292,2.297 10.104,2.297c3.129,0 5.99,-0.525 8.583,-1.577c2.593,-1.051 4.839,-2.657 6.737,-4.818l5.284,6.214c-2.379,2.8 -5.348,4.931 -8.907,6.392c-3.559,1.462 -7.542,2.193 -11.951,2.193Z" style="fill:#fff8f8;fill-rule:nonzero;"/><path d="M2158.68,812.192c-5.374,-0 -10.175,-1.159 -14.402,-3.477c-4.227,-2.318 -7.539,-5.514 -9.937,-9.588c-2.397,-4.073 -3.596,-8.733 -3.596,-13.979c0,-5.302 1.199,-9.977 3.596,-14.023c2.398,-4.046 5.71,-7.226 9.937,-9.538c4.227,-2.313 9.028,-3.469 14.402,-3.469c4.803,0 9.089,0.953 12.857,2.86c3.768,1.907 6.696,4.739 8.783,8.496l-7.312,4.625c-1.719,-2.564 -3.825,-4.468 -6.318,-5.712c-2.493,-1.244 -5.192,-1.866 -8.095,-1.866c-3.453,0 -6.552,0.764 -9.297,2.29c-2.746,1.527 -4.91,3.684 -6.493,6.474c-1.582,2.789 -2.374,6.076 -2.374,9.863c0,3.786 0.792,7.074 2.374,9.862c1.583,2.789 3.747,4.949 6.493,6.481c2.745,1.532 5.844,2.297 9.297,2.297c2.903,0 5.602,-0.61 8.095,-1.83c2.493,-1.22 4.599,-3.136 6.318,-5.746l7.312,4.623c-2.087,3.701 -5.015,6.519 -8.783,8.454c-3.768,1.935 -8.054,2.903 -12.857,2.903Z" style="fill:#fff8f8;fill-rule:nonzero;"/><path d="M2211.79,812.192c-5.282,-0 -9.995,-1.159 -14.14,-3.477c-4.145,-2.318 -7.416,-5.521 -9.814,-9.611c-2.397,-4.09 -3.596,-8.746 -3.596,-13.97c0,-5.293 1.204,-9.961 3.612,-14.004c2.408,-4.043 5.673,-7.223 9.795,-9.538c4.121,-2.316 8.836,-3.474 14.143,-3.474c5.307,0 10.039,1.156 14.198,3.468c4.159,2.312 7.424,5.486 9.795,9.523c2.37,4.036 3.556,8.711 3.556,14.025c-0,5.245 -1.182,9.907 -3.546,13.986c-2.363,4.079 -5.635,7.277 -9.814,9.595c-4.18,2.318 -8.909,3.477 -14.189,3.477Zm0,-8.404c3.443,0 6.506,-0.765 9.189,-2.297c2.684,-1.532 4.8,-3.709 6.35,-6.531c1.55,-2.822 2.325,-6.096 2.325,-9.823c0,-3.779 -0.775,-7.063 -2.325,-9.852c-1.55,-2.79 -3.666,-4.947 -6.35,-6.474c-2.683,-1.526 -5.732,-2.29 -9.146,-2.29c-3.415,0 -6.462,0.764 -9.14,2.29c-2.679,1.527 -4.81,3.684 -6.393,6.474c-1.582,2.789 -2.374,6.073 -2.374,9.852c0,3.727 0.792,7.001 2.374,9.823c1.583,2.822 3.712,4.999 6.386,6.531c2.675,1.532 5.71,2.297 9.104,2.297Z" style="fill:#fff8f8;fill-rule:nonzero;"/><path d="M2278.42,758.118c4.323,0 8.131,0.831 11.423,2.492c3.292,1.662 5.887,4.191 7.784,7.589c1.897,3.397 2.845,7.71 2.845,12.939l0,30.5l-9.6,0l0,-29.401c0,-5.162 -1.253,-9.043 -3.76,-11.645c-2.507,-2.601 -6.046,-3.902 -10.618,-3.902c-3.351,-0 -6.294,0.677 -8.829,2.032c-2.535,1.355 -4.486,3.33 -5.853,5.927c-1.367,2.596 -2.051,5.812 -2.051,9.649l0,27.34l-9.6,0l0,-52.967l9.178,0l0,14.278l-1.551,-3.762c1.758,-3.52 4.434,-6.245 8.026,-8.174c3.593,-1.93 7.795,-2.895 12.606,-2.895Z" style="fill:#fff8f8;fill-rule:nonzero;"/><path d="M2335.16,812.192c-5.361,-0 -9.503,-1.421 -12.424,-4.261c-2.922,-2.84 -4.382,-6.948 -4.382,-12.324l-0,-48.573l9.6,-0l-0,48.242c-0,2.822 0.717,5.003 2.151,6.542c1.435,1.54 3.491,2.309 6.169,2.309c2.96,0 5.433,-0.813 7.417,-2.44l3.005,6.889c-1.425,1.21 -3.167,2.116 -5.225,2.716c-2.058,0.6 -4.162,0.9 -6.311,0.9Zm-25.877,-45.624l0,-7.897l33.891,0l0,7.897l-33.891,0Z" style="fill:#fff8f8;fill-rule:nonzero;"/><path d="M2355.76,811.638l0,-52.967l9.178,0l0,14.385l-0.961,-3.594c1.513,-3.689 3.991,-6.501 7.435,-8.438c3.443,-1.937 7.714,-2.906 12.812,-2.906l0,9.347c-0.404,-0.056 -0.783,-0.098 -1.137,-0.127c-0.353,-0.028 -0.709,-0.042 -1.068,-0.042c-5.13,0 -9.189,1.533 -12.177,4.599c-2.988,3.067 -4.482,7.526 -4.482,13.379l0,26.364l-9.6,0Z" style="fill:#fff8f8;fill-rule:nonzero;"/><path d="M2415.19,812.192c-5.282,-0 -9.995,-1.159 -14.14,-3.477c-4.145,-2.318 -7.416,-5.521 -9.814,-9.611c-2.397,-4.09 -3.596,-8.746 -3.596,-13.97c0,-5.293 1.204,-9.961 3.612,-14.004c2.408,-4.043 5.673,-7.223 9.795,-9.538c4.121,-2.316 8.836,-3.474 14.143,-3.474c5.307,0 10.039,1.156 14.198,3.468c4.159,2.312 7.424,5.486 9.795,9.523c2.37,4.036 3.556,8.711 3.556,14.025c-0,5.245 -1.182,9.907 -3.546,13.986c-2.363,4.079 -5.635,7.277 -9.814,9.595c-4.18,2.318 -8.909,3.477 -14.189,3.477Zm0,-8.404c3.443,0 6.506,-0.765 9.189,-2.297c2.684,-1.532 4.8,-3.709 6.35,-6.531c1.55,-2.822 2.325,-6.096 2.325,-9.823c0,-3.779 -0.775,-7.063 -2.325,-9.852c-1.55,-2.79 -3.666,-4.947 -6.35,-6.474c-2.683,-1.526 -5.732,-2.29 -9.146,-2.29c-3.415,0 -6.462,0.764 -9.14,2.29c-2.679,1.527 -4.81,3.684 -6.393,6.474c-1.582,2.789 -2.374,6.073 -2.374,9.852c0,3.727 0.792,7.001 2.374,9.823c1.583,2.822 3.712,4.999 6.386,6.531c2.675,1.532 5.71,2.297 9.104,2.297Z" style="fill:#fff8f8;fill-rule:nonzero;"/><rect x="2453.56" y="737.438" width="9.6" height="74.2" style="fill:#fff8f8;fill-rule:nonzero;"/><path d="M2531.62,812.192c-4.395,-0 -8.417,-1.004 -12.066,-3.012c-3.649,-2.008 -6.557,-5.021 -8.723,-9.039c-2.167,-4.018 -3.25,-9.011 -3.25,-14.978c-0,-6.034 1.055,-11.046 3.165,-15.036c2.111,-3.989 4.99,-6.988 8.639,-8.996c3.649,-2.009 7.727,-3.013 12.235,-3.013c5.184,0 9.789,1.131 13.814,3.392c4.025,2.262 7.194,5.415 9.506,9.461c2.313,4.046 3.469,8.777 3.469,14.192c-0,5.405 -1.156,10.13 -3.469,14.175c-2.312,4.046 -5.481,7.2 -9.506,9.461c-4.025,2.262 -8.63,3.393 -13.814,3.393Zm-28.055,18.846l0,-72.367l9.178,0l0,14.272l-0.578,12.32l1,12.321l0,33.454l-9.6,0Zm27.295,-27.25c3.387,0 6.422,-0.763 9.106,-2.289c2.684,-1.527 4.814,-3.701 6.392,-6.523c1.578,-2.822 2.366,-6.093 2.366,-9.813c0,-3.787 -0.788,-7.075 -2.366,-9.864c-1.578,-2.788 -3.708,-4.948 -6.392,-6.48c-2.684,-1.532 -5.719,-2.298 -9.106,-2.298c-3.386,0 -6.421,0.766 -9.105,2.298c-2.684,1.532 -4.815,3.692 -6.392,6.48c-1.578,2.789 -2.367,6.077 -2.367,9.864c0,3.72 0.789,6.991 2.367,9.813c1.577,2.822 3.708,4.996 6.392,6.523c2.684,1.526 5.719,2.289 9.105,2.289Z" style="fill:#fff8f8;fill-rule:nonzero;"/><rect x="2570.66" y="737.438" width="9.6" height="74.2" style="fill:#fff8f8;fill-rule:nonzero;"/><path d="M2628.49,811.638l0,-11.201l-0.423,-2.124l-0,-19.123c-0,-4.049 -1.189,-7.187 -3.567,-9.413c-2.377,-2.227 -5.923,-3.34 -10.636,-3.34c-3.192,-0 -6.275,0.512 -9.249,1.535c-2.975,1.023 -5.511,2.405 -7.609,4.145l-4.019,-7.143c2.748,-2.22 6.044,-3.918 9.887,-5.093c3.843,-1.175 7.867,-1.763 12.071,-1.763c7.239,0 12.835,1.773 16.791,5.318c3.955,3.545 5.932,8.96 5.932,16.245l0,31.957l-9.178,0Zm-17.336,0.554c-3.979,-0 -7.448,-0.657 -10.407,-1.969c-2.958,-1.313 -5.239,-3.153 -6.841,-5.522c-1.602,-2.369 -2.403,-5.071 -2.403,-8.106c-0,-2.862 0.682,-5.455 2.045,-7.78c1.364,-2.325 3.604,-4.194 6.721,-5.606c3.117,-1.413 7.286,-2.119 12.506,-2.119l16.815,-0l0,6.967l-16.409,0c-4.741,0 -7.953,0.793 -9.637,2.378c-1.684,1.586 -2.526,3.521 -2.526,5.805c0,2.628 1.04,4.712 3.118,6.252c2.079,1.54 4.953,2.31 8.623,2.31c3.593,0 6.738,-0.798 9.437,-2.394c2.698,-1.596 4.655,-3.932 5.871,-7.006l1.845,6.621c-1.287,3.176 -3.526,5.665 -6.717,7.466c-3.191,1.802 -7.204,2.703 -12.041,2.703Z" style="fill:#fff8f8;fill-rule:nonzero;"/><path d="M2681.32,758.118c4.323,0 8.131,0.831 11.423,2.492c3.292,1.662 5.887,4.191 7.784,7.589c1.897,3.397 2.845,7.71 2.845,12.939l0,30.5l-9.6,0l0,-29.401c0,-5.162 -1.253,-9.043 -3.76,-11.645c-2.507,-2.601 -6.046,-3.902 -10.618,-3.902c-3.351,-0 -6.294,0.677 -8.829,2.032c-2.535,1.355 -4.486,3.33 -5.853,5.927c-1.367,2.596 -2.051,5.812 -2.051,9.649l0,27.34l-9.6,0l0,-52.967l9.178,0l0,14.278l-1.551,-3.762c1.758,-3.52 4.434,-6.245 8.026,-8.174c3.593,-1.93 7.795,-2.895 12.606,-2.895Z" style="fill:#fff8f8;fill-rule:nonzero;"/><path d="M2743.45,812.192c-5.676,-0 -10.658,-1.159 -14.946,-3.477c-4.289,-2.318 -7.62,-5.516 -9.995,-9.595c-2.374,-4.079 -3.562,-8.737 -3.562,-13.972c0,-5.246 1.146,-9.904 3.439,-13.973c2.292,-4.069 5.451,-7.263 9.479,-9.58c4.027,-2.318 8.589,-3.477 13.685,-3.477c5.096,0 9.616,1.14 13.559,3.419c3.943,2.279 7.035,5.465 9.276,9.557c2.24,4.092 3.361,8.863 3.361,14.313c-0,0.404 -0.014,0.879 -0.042,1.424c-0.029,0.546 -0.071,1.054 -0.127,1.526l-45.111,0l0,-6.967l40.042,-0l-3.84,2.428c0.056,-3.407 -0.657,-6.432 -2.14,-9.075c-1.483,-2.643 -3.509,-4.716 -6.077,-6.219c-2.568,-1.504 -5.535,-2.256 -8.901,-2.256c-3.355,0 -6.333,0.752 -8.935,2.256c-2.601,1.503 -4.627,3.59 -6.076,6.261c-1.45,2.671 -2.174,5.766 -2.174,9.286l-0,1.583c-0,3.551 0.808,6.695 2.424,9.433c1.616,2.737 3.886,4.872 6.811,6.404c2.924,1.532 6.292,2.297 10.104,2.297c3.129,0 5.99,-0.525 8.583,-1.577c2.593,-1.051 4.839,-2.657 6.737,-4.818l5.284,6.214c-2.379,2.8 -5.348,4.931 -8.907,6.392c-3.559,1.462 -7.542,2.193 -11.951,2.193Z" style="fill:#fff8f8;fill-rule:nonzero;"/><path d="M2237.24,1920.95c-5.127,-0 -9.717,-1.131 -13.77,-3.392c-4.053,-2.262 -7.236,-5.418 -9.549,-9.469c-2.313,-4.051 -3.47,-8.779 -3.47,-14.183c0,-5.415 1.157,-10.144 3.47,-14.184c2.313,-4.041 5.496,-7.192 9.549,-9.453c4.053,-2.262 8.643,-3.393 13.77,-3.393c4.452,0 8.489,1.005 12.11,3.013c3.621,2.008 6.514,5.005 8.681,8.989c2.167,3.984 3.25,8.994 3.25,15.028c0,5.967 -1.055,10.962 -3.166,14.985c-2.11,4.024 -4.976,7.039 -8.596,9.047c-3.621,2.008 -7.714,3.012 -12.279,3.012Zm0.761,-8.403c3.387,-0 6.422,-0.766 9.105,-2.298c2.683,-1.532 4.814,-3.708 6.392,-6.53c1.578,-2.822 2.367,-6.093 2.367,-9.813c0,-3.786 -0.789,-7.074 -2.367,-9.863c-1.578,-2.789 -3.709,-4.947 -6.392,-6.474c-2.683,-1.526 -5.718,-2.289 -9.105,-2.289c-3.386,-0 -6.419,0.763 -9.097,2.289c-2.679,1.527 -4.81,3.685 -6.392,6.474c-1.583,2.789 -2.375,6.077 -2.375,9.863c0,3.72 0.792,6.991 2.375,9.813c1.582,2.822 3.713,4.998 6.392,6.53c2.678,1.532 5.711,2.298 9.097,2.298Zm18.118,7.85l-0,-14.271l0.578,-12.32l-1,-12.32l-0,-35.289l9.6,-0l-0,74.2l-9.178,-0Z" style="fill:#fff8f8;fill-rule:nonzero;"/><path d="M2315.3,1920.39l0,-11.202l-0.423,-2.123l-0,-19.124c-0,-4.049 -1.189,-7.186 -3.566,-9.413c-2.378,-2.227 -5.924,-3.34 -10.637,-3.34c-3.192,0 -6.275,0.512 -9.249,1.535c-2.975,1.024 -5.511,2.405 -7.609,4.145l-4.019,-7.142c2.748,-2.221 6.044,-3.919 9.887,-5.094c3.843,-1.175 7.867,-1.763 12.071,-1.763c7.239,0 12.835,1.773 16.791,5.318c3.955,3.546 5.932,8.961 5.932,16.245l0,31.958l-9.178,-0Zm-17.336,0.553c-3.979,-0 -7.448,-0.656 -10.407,-1.969c-2.958,-1.312 -5.239,-3.153 -6.841,-5.522c-1.602,-2.368 -2.403,-5.071 -2.403,-8.106c-0,-2.861 0.682,-5.455 2.045,-7.78c1.364,-2.325 3.604,-4.193 6.721,-5.606c3.117,-1.412 7.286,-2.119 12.506,-2.119l16.815,0l0,6.968l-16.409,-0c-4.741,-0 -7.953,0.792 -9.637,2.378c-1.684,1.585 -2.526,3.52 -2.526,5.804c0,2.628 1.04,4.713 3.118,6.253c2.079,1.54 4.953,2.31 8.623,2.31c3.593,-0 6.738,-0.798 9.437,-2.395c2.698,-1.596 4.655,-3.931 5.871,-7.005l1.845,6.62c-1.287,3.176 -3.526,5.665 -6.717,7.467c-3.191,1.801 -7.204,2.702 -12.041,2.702Z" style="fill:#fff8f8;fill-rule:nonzero;"/><path d="M2358.06,1920.95c-5.361,-0 -9.503,-1.42 -12.424,-4.26c-2.922,-2.84 -4.382,-6.948 -4.382,-12.324l-0,-48.574l9.6,0l-0,48.242c-0,2.822 0.717,5.003 2.151,6.542c1.435,1.54 3.491,2.31 6.169,2.31c2.96,-0 5.433,-0.814 7.417,-2.441l3.005,6.889c-1.425,1.211 -3.167,2.116 -5.225,2.716c-2.058,0.6 -4.162,0.9 -6.311,0.9Zm-25.877,-45.624l0,-7.896l33.891,-0l0,7.896l-33.891,0Z" style="fill:#fff8f8;fill-rule:nonzero;"/><path d="M2411.5,1920.39l0,-11.202l-0.423,-2.123l-0,-19.124c-0,-4.049 -1.189,-7.186 -3.566,-9.413c-2.378,-2.227 -5.924,-3.34 -10.637,-3.34c-3.192,0 -6.275,0.512 -9.249,1.535c-2.975,1.024 -5.511,2.405 -7.609,4.145l-4.019,-7.142c2.748,-2.221 6.044,-3.919 9.887,-5.094c3.843,-1.175 7.867,-1.763 12.071,-1.763c7.239,0 12.835,1.773 16.791,5.318c3.955,3.546 5.932,8.961 5.932,16.245l0,31.958l-9.178,-0Zm-17.336,0.553c-3.979,-0 -7.448,-0.656 -10.407,-1.969c-2.958,-1.312 -5.239,-3.153 -6.841,-5.522c-1.602,-2.368 -2.403,-5.071 -2.403,-8.106c-0,-2.861 0.682,-5.455 2.045,-7.78c1.364,-2.325 3.604,-4.193 6.721,-5.606c3.117,-1.412 7.286,-2.119 12.506,-2.119l16.815,0l0,6.968l-16.409,-0c-4.741,-0 -7.953,0.792 -9.637,2.378c-1.684,1.585 -2.526,3.52 -2.526,5.804c0,2.628 1.04,4.713 3.118,6.253c2.079,1.54 4.953,2.31 8.623,2.31c3.593,-0 6.738,-0.798 9.437,-2.395c2.698,-1.596 4.655,-3.931 5.871,-7.005l1.845,6.62c-1.287,3.176 -3.526,5.665 -6.717,7.467c-3.191,1.801 -7.204,2.702 -12.041,2.702Z" style="fill:#fff8f8;fill-rule:nonzero;"/><path d="M2489.12,1920.95c-4.395,-0 -8.417,-1.004 -12.066,-3.012c-3.649,-2.008 -6.557,-5.021 -8.723,-9.039c-2.167,-4.018 -3.25,-9.011 -3.25,-14.977c-0,-6.035 1.055,-11.047 3.165,-15.036c2.111,-3.99 4.99,-6.989 8.639,-8.997c3.649,-2.008 7.727,-3.013 12.235,-3.013c5.184,0 9.789,1.131 13.814,3.393c4.025,2.261 7.194,5.415 9.506,9.461c2.313,4.045 3.469,8.776 3.469,14.192c-0,5.404 -1.156,10.129 -3.469,14.175c-2.312,4.046 -5.481,7.199 -9.506,9.461c-4.025,2.261 -8.63,3.392 -13.814,3.392Zm-28.055,18.847l0,-72.367l9.178,-0l0,14.271l-0.578,12.321l1,12.32l0,33.455l-9.6,-0Zm27.295,-27.25c3.387,-0 6.422,-0.764 9.106,-2.29c2.684,-1.527 4.814,-3.701 6.392,-6.523c1.578,-2.822 2.366,-6.092 2.366,-9.812c0,-3.788 -0.788,-7.076 -2.366,-9.864c-1.578,-2.789 -3.708,-4.949 -6.392,-6.481c-2.684,-1.532 -5.719,-2.297 -9.106,-2.297c-3.386,-0 -6.421,0.765 -9.105,2.297c-2.684,1.532 -4.815,3.692 -6.392,6.481c-1.578,2.788 -2.367,6.076 -2.367,9.864c0,3.72 0.789,6.99 2.367,9.812c1.577,2.822 3.708,4.996 6.392,6.523c2.684,1.526 5.719,2.29 9.105,2.29Z" style="fill:#fff8f8;fill-rule:nonzero;"/><rect x="2528.17" y="1846.19" width="9.6" height="74.2" style="fill:#fff8f8;fill-rule:nonzero;"/><path d="M2586,1920.39l0,-11.202l-0.423,-2.123l-0,-19.124c-0,-4.049 -1.189,-7.186 -3.566,-9.413c-2.378,-2.227 -5.924,-3.34 -10.637,-3.34c-3.192,0 -6.275,0.512 -9.249,1.535c-2.975,1.024 -5.511,2.405 -7.609,4.145l-4.019,-7.142c2.748,-2.221 6.044,-3.919 9.887,-5.094c3.843,-1.175 7.867,-1.763 12.071,-1.763c7.239,0 12.835,1.773 16.791,5.318c3.955,3.546 5.932,8.961 5.932,16.245l0,31.958l-9.178,-0Zm-17.336,0.553c-3.979,-0 -7.448,-0.656 -10.407,-1.969c-2.958,-1.312 -5.239,-3.153 -6.841,-5.522c-1.602,-2.368 -2.403,-5.071 -2.403,-8.106c-0,-2.861 0.682,-5.455 2.045,-7.78c1.364,-2.325 3.604,-4.193 6.721,-5.606c3.117,-1.412 7.286,-2.119 12.506,-2.119l16.815,0l0,6.968l-16.409,-0c-4.741,-0 -7.953,0.792 -9.637,2.378c-1.684,1.585 -2.526,3.52 -2.526,5.804c0,2.628 1.04,4.713 3.118,6.253c2.079,1.54 4.953,2.31 8.623,2.31c3.593,-0 6.738,-0.798 9.437,-2.395c2.698,-1.596 4.655,-3.931 5.871,-7.005l1.845,6.62c-1.287,3.176 -3.526,5.665 -6.717,7.467c-3.191,1.801 -7.204,2.702 -12.041,2.702Z" style="fill:#fff8f8;fill-rule:nonzero;"/><path d="M2638.83,1866.87c4.323,0 8.131,0.831 11.423,2.493c3.292,1.661 5.887,4.191 7.784,7.588c1.897,3.397 2.845,7.711 2.845,12.94l0,30.5l-9.6,-0l0,-29.402c0,-5.161 -1.253,-9.043 -3.76,-11.644c-2.507,-2.602 -6.046,-3.903 -10.618,-3.903c-3.351,0 -6.294,0.678 -8.829,2.032c-2.535,1.355 -4.486,3.331 -5.853,5.927c-1.367,2.596 -2.051,5.813 -2.051,9.649l0,27.341l-9.6,-0l0,-52.967l9.178,-0l0,14.278l-1.551,-3.763c1.758,-3.52 4.434,-6.244 8.026,-8.174c3.593,-1.93 7.795,-2.895 12.606,-2.895Z" style="fill:#fff8f8;fill-rule:nonzero;"/><path d="M2700.95,1920.95c-5.676,-0 -10.658,-1.159 -14.946,-3.477c-4.289,-2.317 -7.62,-5.516 -9.995,-9.595c-2.374,-4.079 -3.562,-8.736 -3.562,-13.972c0,-5.246 1.146,-9.903 3.439,-13.973c2.292,-4.069 5.451,-7.262 9.479,-9.58c4.027,-2.318 8.589,-3.477 13.685,-3.477c5.096,0 9.616,1.14 13.559,3.419c3.943,2.279 7.035,5.465 9.276,9.557c2.24,4.092 3.361,8.864 3.361,14.314c-0,0.404 -0.014,0.878 -0.042,1.424c-0.029,0.545 -0.071,1.054 -0.127,1.526l-45.111,-0l0,-6.968l40.042,0l-3.84,2.428c0.056,-3.407 -0.657,-6.432 -2.14,-9.075c-1.483,-2.642 -3.509,-4.715 -6.077,-6.219c-2.568,-1.504 -5.535,-2.256 -8.901,-2.256c-3.355,0 -6.333,0.752 -8.935,2.256c-2.601,1.504 -4.627,3.591 -6.076,6.262c-1.45,2.67 -2.174,5.766 -2.174,9.286l-0,1.582c-0,3.551 0.808,6.696 2.424,9.433c1.616,2.738 3.886,4.872 6.811,6.404c2.924,1.532 6.292,2.298 10.104,2.298c3.129,-0 5.99,-0.526 8.583,-1.578c2.593,-1.051 4.839,-2.657 6.737,-4.818l5.284,6.215c-2.379,2.8 -5.348,4.93 -8.907,6.392c-3.559,1.461 -7.542,2.192 -11.951,2.192Z" style="fill:#fff8f8;fill-rule:nonzero;"/><rect x="1417.39" y="682.853" width="2063.71" height="936.02" style="fill:none;stroke:#fff;stroke-width:8.33px;"/><rect x="2544.34" y="918.186" width="767.689" height="229.121" style="fill:#00abcd;fill-opacity:0.53;stroke:#fff;stroke-width:8.33px;"/><rect x="1417.39" y="1743.45" width="2063.71" height="1195.71" style="fill:none;stroke:#fff;stroke-width:8.33px;"/><path d="M861.612,2394.59c-0,-26.325 -21.373,-47.697 -47.698,-47.697l-630.047,-0c-26.325,-0 -47.698,21.372 -47.698,47.697l0,143.094c0,26.326 21.373,47.698 47.698,47.698l630.047,0c26.325,0 47.698,-21.372 47.698,-47.698l-0,-143.094Z" style="fill:#909090;stroke:#828282;stroke-width:0.63px;"/><path d="M281.258,2346.89l-0,238.489" style="fill:none;stroke:#fff;stroke-opacity:0.4;stroke-width:3.33px;"/><path d="M3402.16,234.912l-310.845,-0c-12.273,-0 -22.203,9.93 -22.203,22.203l-0,310.845c-0,12.273 9.93,22.203 22.203,22.203l310.845,0c12.273,0 22.203,-9.93 22.203,-22.203l0,-310.845c0,-12.273 -9.93,-22.203 -22.203,-22.203Zm-266.438,88.813c-12.273,-0 -22.204,-9.931 -22.204,-22.204c0,-12.272 9.931,-22.203 22.204,-22.203c12.272,0 22.203,9.931 22.203,22.203c-0,12.273 -9.931,22.204 -22.203,22.204Zm222.032,-0l-155.423,-0c-12.273,-0 -22.203,-9.931 -22.203,-22.204c-0,-12.272 9.93,-22.203 22.203,-22.203l155.423,0c12.272,0 22.203,9.931 22.203,22.203c-0,12.273 -9.931,22.204 -22.203,22.204Z" style="fill:#fff;fill-rule:nonzero;"/><path d="M208.714,2346.89l-0,238.489" style="fill:none;stroke:#fff;stroke-opacity:0.4;stroke-width:3.33px;"/><path d="M353.802,2346.89l0,238.489" style="fill:none;stroke:#fff;stroke-opacity:0.4;stroke-width:3.33px;"/><path d="M426.346,2346.89l0,238.489" style="fill:none;stroke:#fff;stroke-opacity:0.4;stroke-width:3.33px;"/><path d="M498.891,2346.89l-0,238.489" style="fill:none;stroke:#fff;stroke-opacity:0.4;stroke-width:3.33px;"/><path d="M571.435,2346.89l-0,238.489" style="fill:none;stroke:#fff;stroke-opacity:0.4;stroke-width:3.33px;"/><path d="M643.979,2346.89l-0,238.489" style="fill:none;stroke:#fff;stroke-opacity:0.4;stroke-width:3.33px;"/><path d="M716.523,2346.89l0,238.489" style="fill:none;stroke:#fff;stroke-opacity:0.4;stroke-width:3.33px;"/><path d="M789.067,2346.89l0,238.489" style="fill:none;stroke:#fff;stroke-opacity:0.4;stroke-width:3.33px;"/><path d="M391.237,2489.53l0.205,-12.281l24.75,-27.905l9.498,0l-19.047,22.966l-4.253,4.408l-11.153,12.812Zm-6.274,12.782l0,-74.2l7.804,-0l0,74.2l-7.804,-0Zm32.93,-0l-16.927,-25.755l5.009,-7.703l21.447,33.458l-9.529,-0Z" style="fill:#fff8f8;fill-rule:nonzero;"/><path d="M457.177,2502.31l-0,-11.202l-0.345,-2.123l0,-19.124c0,-4.049 -0.966,-7.186 -2.899,-9.413c-1.933,-2.227 -4.815,-3.34 -8.647,-3.34c-2.594,0 -5.101,0.512 -7.519,1.535c-2.418,1.024 -4.479,2.405 -6.185,4.145l-3.267,-7.142c2.234,-2.221 4.913,-3.919 8.037,-5.094c3.125,-1.175 6.396,-1.763 9.813,-1.763c5.885,0 10.435,1.773 13.65,5.318c3.215,3.546 4.823,8.96 4.823,16.245l-0,31.958l-7.461,-0Zm-14.093,0.553c-3.235,-0 -6.055,-0.656 -8.46,-1.969c-2.406,-1.312 -4.26,-3.153 -5.562,-5.522c-1.302,-2.369 -1.954,-5.071 -1.954,-8.106c0,-2.862 0.555,-5.455 1.663,-7.78c1.109,-2.325 2.93,-4.194 5.464,-5.606c2.534,-1.413 5.923,-2.119 10.166,-2.119l13.67,0l-0,6.967l-13.34,0c-3.854,0 -6.465,0.793 -7.834,2.379c-1.369,1.585 -2.053,3.52 -2.053,5.804c-0,2.628 0.845,4.712 2.535,6.253c1.689,1.54 4.026,2.31 7.009,2.31c2.921,-0 5.478,-0.798 7.672,-2.395c2.193,-1.596 3.784,-3.931 4.772,-7.005l1.501,6.62c-1.047,3.176 -2.867,5.665 -5.461,7.466c-2.594,1.802 -5.857,2.703 -9.788,2.703Z" style="fill:#fff8f8;fill-rule:nonzero;"/><path d="M478.28,2502.31l-0,-57.747c-0,-5.151 1.224,-9.273 3.671,-12.367c2.448,-3.093 5.962,-4.639 10.541,-4.639c1.7,-0 3.319,0.243 4.855,0.731c1.536,0.487 2.837,1.251 3.904,2.292l-2.374,7.312c-0.775,-0.785 -1.681,-1.388 -2.717,-1.809c-1.036,-0.421 -2.117,-0.631 -3.244,-0.631c-2.314,-0 -4.066,0.784 -5.255,2.351c-1.188,1.568 -1.783,3.875 -1.783,6.922l0,7.114l0.206,4.393l-0,46.078l-7.804,-0Zm-7.374,-45.071l0,-7.897l27.551,0l-0,7.897l-27.551,0Z" style="fill:#fff8f8;fill-rule:nonzero;"/><path d="M508.705,2489.53l0.206,-12.281l24.75,-27.905l9.497,0l-19.047,22.966l-4.252,4.408l-11.154,12.812Zm-6.274,12.782l0,-74.2l7.804,-0l0,74.2l-7.804,-0Zm32.93,-0l-16.926,-25.755l5.008,-7.703l21.447,33.458l-9.529,-0Z" style="fill:#fff8f8;fill-rule:nonzero;"/><path d="M574.645,2502.31l-0,-11.202l-0.344,-2.123l-0,-19.124c-0,-4.049 -0.967,-7.186 -2.9,-9.413c-1.932,-2.227 -4.815,-3.34 -8.646,-3.34c-2.595,0 -5.101,0.512 -7.519,1.535c-2.418,1.024 -4.48,2.405 -6.186,4.145l-3.267,-7.142c2.234,-2.221 4.913,-3.919 8.038,-5.094c3.124,-1.175 6.395,-1.763 9.812,-1.763c5.885,0 10.435,1.773 13.65,5.318c3.215,3.546 4.823,8.96 4.823,16.245l0,31.958l-7.461,-0Zm-14.093,0.553c-3.235,-0 -6.055,-0.656 -8.46,-1.969c-2.406,-1.312 -4.259,-3.153 -5.562,-5.522c-1.302,-2.369 -1.953,-5.071 -1.953,-8.106c-0,-2.862 0.554,-5.455 1.662,-7.78c1.109,-2.325 2.93,-4.194 5.464,-5.606c2.534,-1.413 5.923,-2.119 10.166,-2.119l13.67,0l0,6.967l-13.34,0c-3.853,0 -6.465,0.793 -7.834,2.379c-1.368,1.585 -2.053,3.52 -2.053,5.804c0,2.628 0.845,4.712 2.535,6.253c1.69,1.54 4.026,2.31 7.009,2.31c2.921,-0 5.478,-0.798 7.672,-2.395c2.194,-1.596 3.784,-3.931 4.773,-7.005l1.5,6.62c-1.047,3.176 -2.867,5.665 -5.461,7.466c-2.594,1.802 -5.856,2.703 -9.788,2.703Z" style="fill:#fff8f8;fill-rule:nonzero;"/><g><path d="M1611.63,1021.6l22.868,24.477l40.112,16.835l39.446,7.323l30.281,1.427l36.505,-0.424l46.27,-9.753l44.143,-18.468l17.608,-22.702l0.975,262.9l-13.13,22.461l-34.124,19.161l-52.873,15.311l-66.978,0.789l-38.409,-9.868l-38.428,-10.783l-34.607,-29.328l0.341,-269.358Z" style="fill:#91a3b2;fill-opacity:0.72;"/><path d="M1888.98,1013.93l0,268.262" style="fill:none;fill-rule:nonzero;stroke:#fff;stroke-width:6.27px;stroke-linejoin:miter;stroke-miterlimit:4;"/><path d="M1610.92,1282.19l-0,-268.262" style="fill:none;fill-rule:nonzero;stroke:#fff;stroke-width:6.27px;stroke-linejoin:miter;stroke-miterlimit:4;"/><ellipse cx="1749.95" cy="1013.93" rx="139.027" ry="57.485" style="fill:none;stroke:#fff;stroke-width:6.27px;stroke-linejoin:miter;stroke-miterlimit:4;"/><path d="M1888.98,1282.19c0,31.808 -61.789,57.485 -139.026,57.485c-77.238,-0 -139.027,-25.677 -139.027,-57.485" style="fill:none;fill-rule:nonzero;stroke:#fff;stroke-width:6.27px;stroke-linejoin:miter;stroke-miterlimit:4;"/><path d="M1700.44,1208.05c-3.296,0 -6.312,-0.752 -9.049,-2.258c-2.737,-1.506 -4.917,-3.766 -6.542,-6.78c-1.625,-3.013 -2.438,-6.758 -2.438,-11.233c0,-4.525 0.791,-8.284 2.374,-11.277c1.583,-2.992 3.743,-5.241 6.48,-6.747c2.736,-1.506 5.795,-2.26 9.175,-2.26c3.889,0 7.342,0.848 10.361,2.545c3.019,1.696 5.395,4.061 7.13,7.095c1.734,3.035 2.601,6.583 2.601,10.644c0,4.054 -0.867,7.597 -2.601,10.632c-1.735,3.034 -4.111,5.399 -7.13,7.095c-3.019,1.696 -6.472,2.544 -10.361,2.544Zm-21.041,14.136l0,-54.276l6.884,0l-0,10.704l-0.434,9.24l0.75,9.241l0,25.091l-7.2,-0Zm20.472,-20.438c2.54,0 4.816,-0.572 6.829,-1.717c2.013,-1.145 3.611,-2.776 4.794,-4.892c1.183,-2.117 1.775,-4.57 1.775,-7.36c-0,-2.84 -0.592,-5.306 -1.775,-7.398c-1.183,-2.091 -2.781,-3.711 -4.794,-4.86c-2.013,-1.149 -4.289,-1.723 -6.829,-1.723c-2.54,-0 -4.816,0.574 -6.829,1.723c-2.013,1.149 -3.611,2.769 -4.794,4.86c-1.184,2.092 -1.775,4.558 -1.775,7.398c-0,2.79 0.591,5.243 1.775,7.36c1.183,2.116 2.781,3.747 4.794,4.892c2.013,1.145 4.289,1.717 6.829,1.717Z" style="fill:#fff8f8;fill-rule:nonzero;"/><path d="M1741.12,1208.05c-3.32,0 -6.471,-0.447 -9.453,-1.341c-2.982,-0.895 -5.324,-1.99 -7.027,-3.286l3.052,-5.698c1.696,1.181 3.794,2.168 6.294,2.961c2.5,0.792 5.047,1.189 7.64,1.189c3.333,-0 5.746,-0.483 7.239,-1.45c1.493,-0.966 2.24,-2.281 2.24,-3.944c0,-1.259 -0.454,-2.236 -1.362,-2.931c-0.907,-0.695 -2.106,-1.224 -3.597,-1.588c-1.49,-0.364 -3.132,-0.679 -4.927,-0.945c-1.794,-0.265 -3.589,-0.609 -5.383,-1.03c-1.795,-0.421 -3.437,-1.026 -4.928,-1.814c-1.491,-0.788 -2.69,-1.873 -3.598,-3.253c-0.908,-1.38 -1.361,-3.209 -1.361,-5.486c-0,-2.383 0.675,-4.473 2.026,-6.268c1.351,-1.796 3.261,-3.19 5.73,-4.182c2.468,-0.992 5.408,-1.489 8.82,-1.489c2.611,0 5.249,0.321 7.916,0.961c2.667,0.641 4.852,1.519 6.555,2.635l-3.054,5.696c-1.803,-1.165 -3.681,-1.976 -5.633,-2.432c-1.952,-0.456 -3.902,-0.684 -5.848,-0.684c-3.152,0 -5.501,0.508 -7.045,1.525c-1.545,1.016 -2.318,2.323 -2.318,3.921c0,1.351 0.454,2.389 1.362,3.113c0.908,0.724 2.107,1.291 3.597,1.7c1.49,0.41 3.133,0.748 4.927,1.013c1.795,0.266 3.587,0.609 5.378,1.031c1.79,0.421 3.431,1.013 4.922,1.776c1.49,0.763 2.69,1.821 3.597,3.173c0.908,1.352 1.362,3.141 1.362,5.368c0,2.414 -0.694,4.5 -2.082,6.257c-1.388,1.757 -3.355,3.114 -5.903,4.069c-2.547,0.956 -5.593,1.433 -9.138,1.433Z" style="fill:#fff8f8;fill-rule:nonzero;"/><path d="M1780.85,1208.05c-3.845,0 -7.288,-0.848 -10.328,-2.544c-3.04,-1.696 -5.427,-4.061 -7.162,-7.095c-1.734,-3.035 -2.602,-6.578 -2.602,-10.632c0,-4.061 0.868,-7.609 2.602,-10.644c1.735,-3.034 4.122,-5.399 7.162,-7.095c3.04,-1.697 6.483,-2.545 10.328,-2.545c3.423,0 6.493,0.754 9.209,2.26c2.715,1.506 4.864,3.755 6.447,6.747c1.583,2.993 2.374,6.752 2.374,11.277c0,4.475 -0.812,8.22 -2.437,11.233c-1.625,3.014 -3.795,5.274 -6.511,6.78c-2.716,1.506 -5.743,2.258 -9.082,2.258Zm0.571,-6.302c2.54,0 4.816,-0.572 6.828,-1.717c2.013,-1.145 3.611,-2.776 4.794,-4.892c1.184,-2.117 1.776,-4.57 1.776,-7.36c-0,-2.84 -0.592,-5.306 -1.776,-7.398c-1.183,-2.091 -2.781,-3.711 -4.794,-4.86c-2.012,-1.149 -4.288,-1.723 -6.828,-1.723c-2.54,-0 -4.815,0.574 -6.824,1.723c-2.008,1.149 -3.607,2.769 -4.794,4.86c-1.187,2.092 -1.78,4.558 -1.78,7.398c-0,2.79 0.593,5.243 1.78,7.36c1.187,2.116 2.786,3.747 4.794,4.892c2.009,1.145 4.284,1.717 6.824,1.717Zm13.271,20.438l0,-25.091l0.75,-9.241l-0.433,-9.24l-0,-10.704l6.883,0l0,54.276l-7.2,-0Z" style="fill:#fff8f8;fill-rule:nonzero;"/><rect x="1814.78" y="1151.99" width="7.2" height="55.65" style="fill:#fff8f8;fill-rule:nonzero;"/></g><path d="M2775.85,1053.65l-0,-8.402l-0.318,-1.592l0,-14.343c0,-3.036 -0.891,-5.39 -2.674,-7.06c-1.784,-1.67 -4.443,-2.505 -7.978,-2.505c-2.394,0 -4.706,0.384 -6.937,1.152c-2.231,0.767 -4.133,1.803 -5.706,3.108l-3.014,-5.356c2.061,-1.666 4.532,-2.94 7.415,-3.821c2.882,-0.881 5.9,-1.322 9.053,-1.322c5.429,0 9.627,1.33 12.593,3.989c2.966,2.659 4.45,6.72 4.45,12.183l-0,23.969l-6.884,-0Zm-13.002,0.414c-2.984,0 -5.586,-0.492 -7.805,-1.476c-2.219,-0.985 -3.93,-2.365 -5.131,-4.142c-1.202,-1.776 -1.803,-3.803 -1.803,-6.079c0,-2.146 0.512,-4.091 1.534,-5.835c1.023,-1.744 2.703,-3.145 5.041,-4.205c2.338,-1.059 5.464,-1.589 9.379,-1.589l12.612,0l-0,5.226l-12.307,-0c-3.556,-0 -5.965,0.594 -7.228,1.783c-1.263,1.189 -1.894,2.64 -1.894,4.354c0,1.971 0.78,3.534 2.339,4.689c1.558,1.155 3.714,1.733 6.466,1.733c2.695,-0 5.054,-0.599 7.078,-1.796c2.024,-1.198 3.492,-2.949 4.403,-5.254l1.384,4.965c-0.965,2.382 -2.645,4.248 -5.038,5.6c-2.393,1.351 -5.403,2.026 -9.03,2.026Z" style="fill:#fff8f8;fill-rule:nonzero;"/><path d="M2794.27,1053.65l0,-39.726l6.884,0l0,10.788l-0.721,-2.695c1.135,-2.766 2.993,-4.876 5.576,-6.329c2.583,-1.452 5.786,-2.179 9.61,-2.179l-0,7.01c-0.304,-0.042 -0.588,-0.073 -0.853,-0.094c-0.265,-0.022 -0.532,-0.032 -0.801,-0.032c-3.848,-0 -6.892,1.15 -9.133,3.449c-2.241,2.3 -3.362,5.645 -3.362,10.035l0,19.773l-7.2,-0Z" style="fill:#fff8f8;fill-rule:nonzero;"/><path d="M2822.25,1053.65l0,-39.726l6.884,0l0,10.788l-0.721,-2.695c1.135,-2.766 2.993,-4.876 5.576,-6.329c2.583,-1.452 5.786,-2.179 9.61,-2.179l-0,7.01c-0.304,-0.042 -0.588,-0.073 -0.853,-0.094c-0.265,-0.022 -0.532,-0.032 -0.801,-0.032c-3.848,-0 -6.892,1.15 -9.133,3.449c-2.241,2.3 -3.362,5.645 -3.362,10.035l0,19.773l-7.2,-0Z" style="fill:#fff8f8;fill-rule:nonzero;"/><path d="M2866.82,1054.07c-3.962,0 -7.497,-0.869 -10.606,-2.607c-3.108,-1.738 -5.561,-4.141 -7.359,-7.208c-1.799,-3.067 -2.698,-6.56 -2.698,-10.478c0,-3.969 0.903,-7.47 2.709,-10.503c1.806,-3.032 4.255,-5.417 7.346,-7.154c3.092,-1.736 6.627,-2.605 10.608,-2.605c3.98,0 7.529,0.867 10.648,2.601c3.119,1.734 5.568,4.115 7.346,7.142c1.778,3.028 2.667,6.534 2.667,10.519c0,3.934 -0.886,7.43 -2.659,10.489c-1.772,3.06 -4.226,5.459 -7.361,7.197c-3.135,1.738 -6.682,2.607 -10.641,2.607Zm-0,-6.302c2.582,0 4.879,-0.574 6.892,-1.723c2.012,-1.149 3.6,-2.782 4.762,-4.898c1.163,-2.116 1.744,-4.572 1.744,-7.368c-0,-2.834 -0.581,-5.297 -1.744,-7.389c-1.162,-2.092 -2.75,-3.71 -4.762,-4.855c-2.013,-1.145 -4.299,-1.717 -6.86,-1.717c-2.561,-0 -4.846,0.572 -6.855,1.717c-2.009,1.145 -3.607,2.763 -4.794,4.855c-1.188,2.092 -1.781,4.555 -1.781,7.389c-0,2.796 0.593,5.252 1.781,7.368c1.187,2.116 2.783,3.749 4.789,4.898c2.006,1.149 4.282,1.723 6.828,1.723Z" style="fill:#fff8f8;fill-rule:nonzero;"/><path d="M2896.17,1068.62c-1.911,0 -3.769,-0.308 -5.574,-0.925c-1.805,-0.618 -3.338,-1.522 -4.599,-2.714l3.088,-5.381c0.965,0.932 2.055,1.649 3.268,2.153c1.213,0.504 2.49,0.756 3.829,0.756c1.731,0 3.178,-0.453 4.34,-1.359c1.162,-0.907 2.249,-2.493 3.26,-4.759l2.471,-5.478l0.691,-0.968l15.655,-36.015l7.045,0l-19.294,43.733c-1.161,2.776 -2.452,4.969 -3.873,6.578c-1.421,1.609 -2.98,2.741 -4.677,3.396c-1.697,0.656 -3.574,0.983 -5.63,0.983Zm9.432,-13.696l-18.097,-40.994l7.488,0l15.402,35.381l-4.793,5.613Z" style="fill:#fff8f8;fill-rule:nonzero;"/><path d="M2948.42,1054.07c-3.962,0 -7.497,-0.869 -10.606,-2.607c-3.108,-1.738 -5.561,-4.141 -7.359,-7.208c-1.799,-3.067 -2.698,-6.56 -2.698,-10.478c0,-3.969 0.903,-7.47 2.709,-10.503c1.806,-3.032 4.255,-5.417 7.346,-7.154c3.092,-1.736 6.627,-2.605 10.608,-2.605c3.98,0 7.529,0.867 10.648,2.601c3.119,1.734 5.568,4.115 7.346,7.142c1.778,3.028 2.667,6.534 2.667,10.519c0,3.934 -0.886,7.43 -2.659,10.489c-1.772,3.06 -4.226,5.459 -7.361,7.197c-3.135,1.738 -6.682,2.607 -10.641,2.607Zm-0,-6.302c2.582,0 4.879,-0.574 6.892,-1.723c2.012,-1.149 3.6,-2.782 4.762,-4.898c1.163,-2.116 1.744,-4.572 1.744,-7.368c-0,-2.834 -0.581,-5.297 -1.744,-7.389c-1.162,-2.092 -2.75,-3.71 -4.762,-4.855c-2.013,-1.145 -4.299,-1.717 -6.86,-1.717c-2.561,-0 -4.846,0.572 -6.855,1.717c-2.009,1.145 -3.607,2.763 -4.794,4.855c-1.188,2.092 -1.781,4.555 -1.781,7.389c-0,2.796 0.593,5.252 1.781,7.368c1.187,2.116 2.783,3.749 4.789,4.898c2.006,1.149 4.282,1.723 6.828,1.723Z" style="fill:#fff8f8;fill-rule:nonzero;"/><rect x="2975.4" y="1029.93" width="20.143" height="6.238" style="fill:#fff8f8;fill-rule:nonzero;"/><path d="M3031.07,1053.65l-0,-8.402l-0.318,-1.592l0,-14.343c0,-3.036 -0.891,-5.39 -2.674,-7.06c-1.784,-1.67 -4.443,-2.505 -7.978,-2.505c-2.394,0 -4.706,0.384 -6.937,1.152c-2.231,0.767 -4.133,1.803 -5.706,3.108l-3.014,-5.356c2.061,-1.666 4.532,-2.94 7.415,-3.821c2.882,-0.881 5.9,-1.322 9.053,-1.322c5.429,0 9.627,1.33 12.593,3.989c2.966,2.659 4.45,6.72 4.45,12.183l-0,23.969l-6.884,-0Zm-13.002,0.414c-2.984,0 -5.586,-0.492 -7.805,-1.476c-2.219,-0.985 -3.93,-2.365 -5.131,-4.142c-1.202,-1.776 -1.803,-3.803 -1.803,-6.079c0,-2.146 0.512,-4.091 1.534,-5.835c1.023,-1.744 2.703,-3.145 5.041,-4.205c2.338,-1.059 5.464,-1.589 9.379,-1.589l12.612,0l-0,5.226l-12.307,-0c-3.556,-0 -5.965,0.594 -7.228,1.783c-1.263,1.189 -1.894,2.64 -1.894,4.354c0,1.971 0.78,3.534 2.339,4.689c1.558,1.155 3.714,1.733 6.466,1.733c2.695,-0 5.054,-0.599 7.078,-1.796c2.024,-1.198 3.492,-2.949 4.403,-5.254l1.384,4.965c-0.965,2.382 -2.645,4.248 -5.038,5.6c-2.393,1.351 -5.403,2.026 -9.03,2.026Z" style="fill:#fff8f8;fill-rule:nonzero;"/><path d="M3070.54,1054.07c-3.297,0 -6.313,-0.753 -9.05,-2.258c-2.736,-1.506 -4.917,-3.766 -6.542,-6.78c-1.625,-3.013 -2.438,-6.758 -2.438,-11.233c0,-4.525 0.792,-8.284 2.374,-11.277c1.583,-2.992 3.743,-5.241 6.48,-6.747c2.736,-1.507 5.795,-2.26 9.176,-2.26c3.888,0 7.341,0.848 10.36,2.544c3.019,1.697 5.395,4.062 7.13,7.096c1.734,3.035 2.601,6.583 2.601,10.644c0,4.053 -0.867,7.597 -2.601,10.632c-1.735,3.034 -4.111,5.399 -7.13,7.095c-3.019,1.696 -6.472,2.544 -10.36,2.544Zm-21.042,14.136l0,-54.276l6.884,0l0,10.704l-0.434,9.24l0.75,9.241l0,25.091l-7.2,-0Zm20.472,-20.438c2.54,0 4.816,-0.572 6.829,-1.717c2.013,-1.145 3.611,-2.776 4.794,-4.892c1.183,-2.117 1.775,-4.57 1.775,-7.36c0,-2.84 -0.592,-5.306 -1.775,-7.398c-1.183,-2.091 -2.781,-3.711 -4.794,-4.86c-2.013,-1.149 -4.289,-1.723 -6.829,-1.723c-2.54,-0 -4.816,0.574 -6.829,1.723c-2.013,1.149 -3.611,2.769 -4.794,4.86c-1.183,2.092 -1.775,4.558 -1.775,7.398c-0,2.79 0.592,5.243 1.775,7.36c1.183,2.116 2.781,3.747 4.794,4.892c2.013,1.145 4.289,1.717 6.829,1.717Z" style="fill:#fff8f8;fill-rule:nonzero;"/><path d="M3099.8,1053.65l-0,-39.75l7.2,-0l-0,39.75l-7.2,-0Zm3.6,-47.4c-1.4,-0 -2.563,-0.45 -3.488,-1.35c-0.925,-0.9 -1.387,-2 -1.387,-3.3c-0,-1.35 0.462,-2.475 1.387,-3.375c0.925,-0.9 2.088,-1.35 3.488,-1.35c1.4,-0 2.562,0.437 3.487,1.312c0.925,0.875 1.388,1.963 1.388,3.263c-0,1.35 -0.45,2.487 -1.35,3.412c-0.9,0.925 -2.075,1.388 -3.525,1.388Z" style="fill:#fff8f8;fill-rule:nonzero;"/><path d="M3141.8,480.744l-14.798,-39.726l6.82,0l13.121,35.952l-3.197,0l13.6,-35.952l6.113,0l13.346,35.952l-3.197,0l13.438,-35.952l6.452,0l-14.861,39.726l-6.86,-0l-12.524,-32.854l2.108,0l-12.713,32.854l-6.848,-0Z" style="fill:#3f3c3c;fill-rule:nonzero;"/><path d="M3212.81,481.159c-4.257,-0 -7.994,-0.869 -11.21,-2.608c-3.217,-1.738 -5.715,-4.137 -7.496,-7.196c-1.781,-3.06 -2.672,-6.553 -2.672,-10.479c0,-3.935 0.86,-7.428 2.579,-10.48c1.719,-3.052 4.089,-5.447 7.109,-7.185c3.021,-1.738 6.442,-2.607 10.265,-2.607c3.822,-0 7.211,0.854 10.169,2.564c2.957,1.709 5.276,4.098 6.957,7.167c1.68,3.07 2.52,6.648 2.52,10.735c0,0.303 -0.01,0.66 -0.031,1.069c-0.022,0.409 -0.053,0.79 -0.095,1.144l-33.834,-0l0,-5.226l30.032,0l-2.88,1.822c0.042,-2.556 -0.493,-4.825 -1.605,-6.807c-1.112,-1.982 -2.632,-3.537 -4.558,-4.664c-1.926,-1.128 -4.151,-1.692 -6.675,-1.692c-2.517,0 -4.75,0.564 -6.702,1.692c-1.951,1.127 -3.47,2.693 -4.557,4.696c-1.087,2.003 -1.631,4.325 -1.631,6.964l0,1.188c0,2.663 0.606,5.021 1.818,7.074c1.213,2.053 2.915,3.654 5.109,4.803c2.193,1.149 4.719,1.723 7.578,1.723c2.346,0 4.492,-0.394 6.437,-1.183c1.945,-0.788 3.629,-1.993 5.053,-3.613l3.963,4.66c-1.784,2.1 -4.011,3.698 -6.68,4.795c-2.669,1.096 -5.657,1.644 -8.963,1.644Z" style="fill:#3f3c3c;fill-rule:nonzero;"/><path d="M3260.18,481.159c-3.38,-0 -6.439,-0.753 -9.175,-2.259c-2.737,-1.506 -4.897,-3.768 -6.48,-6.785c-1.582,-3.018 -2.374,-6.764 -2.374,-11.239c0,-4.526 0.813,-8.283 2.438,-11.271c1.625,-2.989 3.806,-5.236 6.542,-6.742c2.737,-1.506 5.753,-2.259 9.049,-2.259c3.889,-0 7.342,0.848 10.361,2.544c3.019,1.696 5.395,4.059 7.13,7.09c1.734,3.03 2.601,6.576 2.601,10.638c0,4.053 -0.867,7.599 -2.601,10.637c-1.735,3.038 -4.111,5.405 -7.13,7.102c-3.019,1.696 -6.472,2.544 -10.361,2.544Zm-21.041,-0.415l0,-55.65l7.2,-0l0,26.467l-0.75,9.24l0.434,9.24l0,10.703l-6.884,-0Zm20.472,-5.888c2.54,0 4.816,-0.574 6.829,-1.723c2.013,-1.149 3.611,-2.781 4.794,-4.898c1.183,-2.116 1.775,-4.569 1.775,-7.359c-0,-2.84 -0.592,-5.306 -1.775,-7.398c-1.183,-2.091 -2.781,-3.71 -4.794,-4.855c-2.013,-1.145 -4.289,-1.717 -6.829,-1.717c-2.54,-0 -4.816,0.572 -6.829,1.717c-2.013,1.145 -3.611,2.764 -4.794,4.855c-1.184,2.092 -1.775,4.558 -1.775,7.398c-0,2.79 0.591,5.243 1.775,7.359c1.183,2.117 2.781,3.749 4.794,4.898c2.013,1.149 4.289,1.723 6.829,1.723Z" style="fill:#3f3c3c;fill-rule:nonzero;"/><path d="M3324.94,481.159c-3.427,-0 -6.423,-0.623 -8.988,-1.869c-2.565,-1.247 -4.559,-3.154 -5.981,-5.723c-1.423,-2.569 -2.134,-5.793 -2.134,-9.674l-0,-22.875l7.2,0l-0,22.053c-0,3.871 0.933,6.782 2.8,8.733c1.867,1.95 4.505,2.926 7.914,2.926c2.49,-0 4.657,-0.508 6.5,-1.524c1.843,-1.016 3.274,-2.51 4.292,-4.483c1.018,-1.972 1.527,-4.372 1.527,-7.199l-0,-20.506l7.2,0l-0,39.726l-6.884,-0l0,-10.697l1.164,2.822c-1.312,2.632 -3.265,4.671 -5.859,6.119c-2.594,1.447 -5.511,2.171 -8.751,2.171Z" style="fill:#3f3c3c;fill-rule:nonzero;"/><path d="M3357.99,480.744l-0,-39.75l7.2,-0l-0,39.75l-7.2,-0Zm3.6,-47.4c-1.4,-0 -2.563,-0.45 -3.488,-1.35c-0.925,-0.9 -1.387,-2 -1.387,-3.3c-0,-1.35 0.462,-2.475 1.387,-3.375c0.925,-0.9 2.088,-1.35 3.488,-1.35c1.4,-0 2.562,0.437 3.487,1.312c0.925,0.875 1.388,1.963 1.388,3.263c-0,1.35 -0.45,2.487 -1.35,3.412c-0.9,0.925 -2.075,1.388 -3.525,1.388Z" style="fill:#3f3c3c;fill-rule:nonzero;"/><rect x="2547.06" y="1252.62" width="765.369" height="229.121" style="fill:#00abcd;fill-opacity:0.53;stroke:#fff;stroke-width:8.33px;"/><path d="M2657.29,1388.08l0,-8.401l-0.317,-1.593l-0,-14.343c-0,-3.036 -0.892,-5.39 -2.675,-7.059c-1.783,-1.67 -4.443,-2.505 -7.978,-2.505c-2.393,-0 -4.706,0.383 -6.937,1.151c-2.23,0.768 -4.133,1.804 -5.706,3.108l-3.014,-5.356c2.061,-1.666 4.532,-2.939 7.415,-3.821c2.882,-0.881 5.9,-1.321 9.053,-1.321c5.429,-0 9.627,1.329 12.593,3.988c2.967,2.659 4.45,6.72 4.45,12.183l-0,23.969l-6.884,-0Zm-13.002,0.415c-2.984,-0 -5.586,-0.493 -7.805,-1.477c-2.219,-0.984 -3.93,-2.365 -5.131,-4.141c-1.202,-1.777 -1.802,-3.803 -1.802,-6.08c-0,-2.146 0.511,-4.091 1.534,-5.835c1.022,-1.744 2.702,-3.145 5.04,-4.204c2.338,-1.06 5.465,-1.59 9.379,-1.59l12.612,0l0,5.226l-12.307,-0c-3.555,-0 -5.964,0.594 -7.227,1.783c-1.263,1.19 -1.895,2.641 -1.895,4.354c0,1.971 0.78,3.534 2.339,4.689c1.559,1.155 3.714,1.733 6.467,1.733c2.694,-0 5.053,-0.599 7.077,-1.796c2.024,-1.197 3.492,-2.949 4.404,-5.254l1.384,4.965c-0.966,2.382 -2.645,4.249 -5.038,5.6c-2.393,1.351 -5.403,2.027 -9.031,2.027Z" style="fill:#fff8f8;fill-rule:nonzero;"/><path d="M2675.72,1388.08l-0,-39.726l6.883,0l0,10.789l-0.72,-2.696c1.134,-2.766 2.993,-4.876 5.575,-6.328c2.583,-1.453 5.786,-2.179 9.61,-2.179l-0,7.01c-0.303,-0.042 -0.587,-0.074 -0.853,-0.095c-0.265,-0.021 -0.532,-0.032 -0.801,-0.032c-3.847,0 -6.892,1.15 -9.133,3.45c-2.241,2.299 -3.361,5.644 -3.361,10.034l-0,19.773l-7.2,-0Z" style="fill:#fff8f8;fill-rule:nonzero;"/><path d="M2703.69,1388.08l-0,-39.726l6.883,0l0,10.789l-0.72,-2.696c1.134,-2.766 2.993,-4.876 5.575,-6.328c2.583,-1.453 5.786,-2.179 9.61,-2.179l-0,7.01c-0.303,-0.042 -0.587,-0.074 -0.853,-0.095c-0.265,-0.021 -0.532,-0.032 -0.801,-0.032c-3.847,0 -6.892,1.15 -9.133,3.45c-2.241,2.299 -3.361,5.644 -3.361,10.034l-0,19.773l-7.2,-0Z" style="fill:#fff8f8;fill-rule:nonzero;"/><path d="M2748.26,1388.5c-3.962,-0 -7.497,-0.87 -10.605,-2.608c-3.109,-1.738 -5.562,-4.141 -7.36,-7.208c-1.798,-3.067 -2.697,-6.56 -2.697,-10.478c-0,-3.969 0.903,-7.47 2.708,-10.503c1.806,-3.032 4.255,-5.417 7.346,-7.153c3.092,-1.737 6.628,-2.605 10.608,-2.605c3.98,-0 7.529,0.867 10.648,2.601c3.12,1.734 5.568,4.114 7.346,7.142c1.778,3.027 2.668,6.533 2.668,10.518c-0,3.934 -0.887,7.43 -2.659,10.49c-1.773,3.059 -4.227,5.458 -7.362,7.196c-3.134,1.738 -6.681,2.608 -10.641,2.608Zm0,-6.303c2.582,0 4.88,-0.574 6.892,-1.723c2.013,-1.149 3.6,-2.781 4.763,-4.898c1.162,-2.116 1.743,-4.572 1.743,-7.367c0,-2.835 -0.581,-5.298 -1.743,-7.39c-1.163,-2.091 -2.75,-3.71 -4.763,-4.855c-2.012,-1.145 -4.299,-1.717 -6.86,-1.717c-2.561,-0 -4.846,0.572 -6.855,1.717c-2.009,1.145 -3.607,2.764 -4.794,4.855c-1.187,2.092 -1.781,4.555 -1.781,7.39c0,2.795 0.594,5.251 1.781,7.367c1.187,2.117 2.783,3.749 4.789,4.898c2.006,1.149 4.282,1.723 6.828,1.723Z" style="fill:#fff8f8;fill-rule:nonzero;"/><path d="M2777.61,1403.05c-1.911,-0 -3.769,-0.309 -5.574,-0.926c-1.805,-0.617 -3.338,-1.522 -4.599,-2.714l3.088,-5.38c0.966,0.931 2.055,1.649 3.268,2.152c1.214,0.504 2.49,0.756 3.829,0.756c1.731,0 3.178,-0.453 4.34,-1.359c1.162,-0.906 2.249,-2.493 3.261,-4.759l2.47,-5.477l0.691,-0.968l15.655,-36.016l7.046,0l-19.295,43.734c-1.161,2.775 -2.452,4.968 -3.873,6.577c-1.42,1.609 -2.979,2.741 -4.677,3.396c-1.697,0.656 -3.574,0.984 -5.63,0.984Zm9.433,-13.697l-18.098,-40.994l7.489,0l15.402,35.382l-4.793,5.612Z" style="fill:#fff8f8;fill-rule:nonzero;"/><path d="M2829.87,1388.5c-3.962,-0 -7.497,-0.87 -10.605,-2.608c-3.109,-1.738 -5.562,-4.141 -7.36,-7.208c-1.798,-3.067 -2.697,-6.56 -2.697,-10.478c-0,-3.969 0.903,-7.47 2.708,-10.503c1.806,-3.032 4.255,-5.417 7.346,-7.153c3.092,-1.737 6.628,-2.605 10.608,-2.605c3.98,-0 7.529,0.867 10.648,2.601c3.12,1.734 5.568,4.114 7.346,7.142c1.778,3.027 2.668,6.533 2.668,10.518c-0,3.934 -0.887,7.43 -2.659,10.49c-1.773,3.059 -4.227,5.458 -7.362,7.196c-3.134,1.738 -6.681,2.608 -10.641,2.608Zm0,-6.303c2.582,0 4.88,-0.574 6.892,-1.723c2.013,-1.149 3.6,-2.781 4.763,-4.898c1.162,-2.116 1.743,-4.572 1.743,-7.367c0,-2.835 -0.581,-5.298 -1.743,-7.39c-1.163,-2.091 -2.75,-3.71 -4.763,-4.855c-2.012,-1.145 -4.299,-1.717 -6.86,-1.717c-2.561,-0 -4.846,0.572 -6.855,1.717c-2.009,1.145 -3.607,2.764 -4.794,4.855c-1.187,2.092 -1.781,4.555 -1.781,7.39c0,2.795 0.594,5.251 1.781,7.367c1.187,2.117 2.783,3.749 4.789,4.898c2.006,1.149 4.282,1.723 6.828,1.723Z" style="fill:#fff8f8;fill-rule:nonzero;"/><rect x="2856.85" y="1364.37" width="20.143" height="6.238" style="fill:#fff8f8;fill-rule:nonzero;"/><path d="M2905.9,1388.5c-4.03,-0 -7.63,-0.87 -10.801,-2.608c-3.17,-1.738 -5.654,-4.135 -7.452,-7.19c-1.798,-3.056 -2.697,-6.551 -2.697,-10.485c-0,-3.977 0.899,-7.482 2.697,-10.517c1.798,-3.035 4.282,-5.42 7.452,-7.154c3.171,-1.734 6.771,-2.601 10.801,-2.601c3.603,-0 6.817,0.715 9.643,2.145c2.826,1.43 5.022,3.554 6.588,6.372l-5.484,3.468c-1.289,-1.923 -2.869,-3.351 -4.739,-4.284c-1.87,-0.933 -3.893,-1.399 -6.071,-1.399c-2.59,-0 -4.914,0.572 -6.973,1.717c-2.059,1.145 -3.682,2.764 -4.869,4.855c-1.187,2.092 -1.781,4.558 -1.781,7.398c0,2.84 0.594,5.305 1.781,7.397c1.187,2.091 2.81,3.711 4.869,4.86c2.059,1.149 4.383,1.723 6.973,1.723c2.178,0 4.201,-0.457 6.071,-1.373c1.87,-0.915 3.45,-2.351 4.739,-4.309l5.484,3.467c-1.566,2.776 -3.762,4.89 -6.588,6.341c-2.826,1.451 -6.04,2.177 -9.643,2.177Z" style="fill:#fff8f8;fill-rule:nonzero;"/><path d="M2945.74,1388.5c-3.962,-0 -7.497,-0.87 -10.605,-2.608c-3.109,-1.738 -5.562,-4.141 -7.36,-7.208c-1.798,-3.067 -2.697,-6.56 -2.697,-10.478c-0,-3.969 0.903,-7.47 2.708,-10.503c1.806,-3.032 4.255,-5.417 7.346,-7.153c3.092,-1.737 6.628,-2.605 10.608,-2.605c3.98,-0 7.529,0.867 10.648,2.601c3.12,1.734 5.568,4.114 7.346,7.142c1.778,3.027 2.668,6.533 2.668,10.518c-0,3.934 -0.887,7.43 -2.659,10.49c-1.773,3.059 -4.227,5.458 -7.362,7.196c-3.134,1.738 -6.681,2.608 -10.641,2.608Zm0,-6.303c2.582,0 4.88,-0.574 6.892,-1.723c2.013,-1.149 3.6,-2.781 4.763,-4.898c1.162,-2.116 1.743,-4.572 1.743,-7.367c0,-2.835 -0.581,-5.298 -1.743,-7.39c-1.163,-2.091 -2.75,-3.71 -4.763,-4.855c-2.012,-1.145 -4.299,-1.717 -6.86,-1.717c-2.561,-0 -4.846,0.572 -6.855,1.717c-2.009,1.145 -3.607,2.764 -4.794,4.855c-1.187,2.092 -1.781,4.555 -1.781,7.39c0,2.795 0.594,5.251 1.781,7.367c1.187,2.117 2.783,3.749 4.789,4.898c2.006,1.149 4.282,1.723 6.828,1.723Z" style="fill:#fff8f8;fill-rule:nonzero;"/><path d="M2995.71,1347.94c3.242,-0 6.098,0.623 8.567,1.869c2.469,1.246 4.415,3.143 5.838,5.691c1.423,2.548 2.134,5.783 2.134,9.705l-0,22.875l-7.2,-0l-0,-22.051c-0,-3.871 -0.94,-6.783 -2.82,-8.734c-1.88,-1.951 -4.535,-2.927 -7.964,-2.927c-2.513,0 -4.72,0.508 -6.621,1.524c-1.901,1.017 -3.365,2.498 -4.39,4.445c-1.026,1.948 -1.538,4.36 -1.538,7.237l-0,20.506l-7.2,-0l-0,-39.726l6.883,0l0,10.709l-1.163,-2.822c1.318,-2.64 3.325,-4.683 6.02,-6.131c2.694,-1.447 5.846,-2.17 9.454,-2.17Z" style="fill:#fff8f8;fill-rule:nonzero;"/><path d="M3038.26,1388.5c-4.021,-0 -7.127,-1.065 -9.318,-3.195c-2.191,-2.131 -3.286,-5.212 -3.286,-9.244l-0,-36.43l7.2,0l-0,36.182c-0,2.116 0.538,3.752 1.613,4.907c1.076,1.154 2.618,1.732 4.627,1.732c2.22,-0 4.075,-0.611 5.563,-1.831l2.253,5.167c-1.068,0.908 -2.375,1.587 -3.918,2.037c-1.544,0.45 -3.122,0.675 -4.734,0.675Zm-19.407,-34.218l0,-5.923l25.418,0l-0,5.923l-25.418,0Z" style="fill:#fff8f8;fill-rule:nonzero;"/><path d="M3053.72,1388.08l-0,-39.726l6.883,0l0,10.789l-0.72,-2.696c1.134,-2.766 2.993,-4.876 5.575,-6.328c2.583,-1.453 5.786,-2.179 9.61,-2.179l-0,7.01c-0.303,-0.042 -0.587,-0.074 -0.853,-0.095c-0.265,-0.021 -0.532,-0.032 -0.801,-0.032c-3.847,0 -6.892,1.15 -9.133,3.45c-2.241,2.299 -3.361,5.644 -3.361,10.034l-0,19.773l-7.2,-0Z" style="fill:#fff8f8;fill-rule:nonzero;"/><path d="M3098.29,1388.5c-3.962,-0 -7.497,-0.87 -10.605,-2.608c-3.109,-1.738 -5.562,-4.141 -7.36,-7.208c-1.798,-3.067 -2.697,-6.56 -2.697,-10.478c-0,-3.969 0.903,-7.47 2.708,-10.503c1.806,-3.032 4.255,-5.417 7.346,-7.153c3.092,-1.737 6.628,-2.605 10.608,-2.605c3.98,-0 7.529,0.867 10.648,2.601c3.12,1.734 5.568,4.114 7.346,7.142c1.778,3.027 2.668,6.533 2.668,10.518c-0,3.934 -0.887,7.43 -2.659,10.49c-1.773,3.059 -4.227,5.458 -7.362,7.196c-3.134,1.738 -6.681,2.608 -10.641,2.608Zm0,-6.303c2.582,0 4.88,-0.574 6.892,-1.723c2.013,-1.149 3.6,-2.781 4.763,-4.898c1.162,-2.116 1.743,-4.572 1.743,-7.367c0,-2.835 -0.581,-5.298 -1.743,-7.39c-1.163,-2.091 -2.75,-3.71 -4.763,-4.855c-2.012,-1.145 -4.299,-1.717 -6.86,-1.717c-2.561,-0 -4.846,0.572 -6.855,1.717c-2.009,1.145 -3.607,2.764 -4.794,4.855c-1.187,2.092 -1.781,4.555 -1.781,7.39c0,2.795 0.594,5.251 1.781,7.367c1.187,2.117 2.783,3.749 4.789,4.898c2.006,1.149 4.282,1.723 6.828,1.723Z" style="fill:#fff8f8;fill-rule:nonzero;"/><rect x="3127.07" y="1332.43" width="7.2" height="55.65" style="fill:#fff8f8;fill-rule:nonzero;"/><rect x="3145.82" y="1332.43" width="7.2" height="55.65" style="fill:#fff8f8;fill-rule:nonzero;"/><path d="M3182.26,1388.5c-4.257,-0 -7.994,-0.87 -11.21,-2.608c-3.217,-1.738 -5.715,-4.137 -7.496,-7.196c-1.781,-3.06 -2.671,-6.553 -2.671,-10.479c-0,-3.935 0.859,-7.428 2.578,-10.48c1.72,-3.052 4.089,-5.447 7.11,-7.185c3.02,-1.738 6.441,-2.607 10.264,-2.607c3.822,-0 7.212,0.854 10.169,2.564c2.957,1.709 5.276,4.098 6.957,7.167c1.68,3.07 2.521,6.648 2.521,10.735c-0,0.303 -0.011,0.66 -0.032,1.069c-0.021,0.409 -0.053,0.79 -0.095,1.144l-33.833,-0l-0,-5.226l30.031,0l-2.88,1.822c0.042,-2.556 -0.493,-4.825 -1.605,-6.807c-1.112,-1.982 -2.631,-3.537 -4.557,-4.664c-1.927,-1.128 -4.152,-1.692 -6.676,-1.692c-2.516,0 -4.75,0.564 -6.701,1.692c-1.951,1.127 -3.471,2.693 -4.558,4.696c-1.087,2.003 -1.63,4.325 -1.63,6.964l-0,1.188c-0,2.663 0.606,5.021 1.818,7.074c1.212,2.053 2.915,3.654 5.108,4.803c2.193,1.149 4.719,1.723 7.578,1.723c2.347,0 4.493,-0.394 6.438,-1.183c1.945,-0.788 3.629,-1.993 5.052,-3.613l3.963,4.66c-1.784,2.1 -4.011,3.698 -6.68,4.794c-2.669,1.097 -5.657,1.645 -8.963,1.645Z" style="fill:#fff8f8;fill-rule:nonzero;"/><path d="M3208.59,1388.08l-0,-39.726l6.883,0l0,10.789l-0.72,-2.696c1.134,-2.766 2.993,-4.876 5.575,-6.328c2.583,-1.453 5.786,-2.179 9.61,-2.179l-0,7.01c-0.303,-0.042 -0.587,-0.074 -0.853,-0.095c-0.265,-0.021 -0.532,-0.032 -0.801,-0.032c-3.847,0 -6.892,1.15 -9.133,3.45c-2.241,2.299 -3.361,5.644 -3.361,10.034l-0,19.773l-7.2,-0Z" style="fill:#fff8f8;fill-rule:nonzero;"/><g><rect x="1599.53" y="2191.77" width="412.932" height="229.121" style="fill:#a8ff56;fill-opacity:0.53;stroke:#fff;stroke-width:8.33px;"/><path d="M1693.54,2327.24l-14.799,-39.726l6.821,0l13.121,35.952l-3.197,0l13.6,-35.952l6.112,0l13.347,35.952l-3.197,0l13.438,-35.952l6.452,0l-14.862,39.726l-6.86,-0l-12.524,-32.854l2.109,0l-12.713,32.854l-6.848,-0Z" style="fill:#fff8f8;fill-rule:nonzero;"/><path d="M1763.84,2327.65c-3.962,-0 -7.497,-0.869 -10.606,-2.608c-3.108,-1.738 -5.562,-4.141 -7.36,-7.208c-1.798,-3.067 -2.697,-6.56 -2.697,-10.478c0,-3.969 0.903,-7.47 2.709,-10.503c1.806,-3.032 4.254,-5.417 7.346,-7.153c3.091,-1.737 6.627,-2.605 10.608,-2.605c3.979,-0 7.529,0.867 10.648,2.601c3.119,1.734 5.568,4.114 7.346,7.142c1.778,3.027 2.667,6.533 2.667,10.518c-0,3.934 -0.886,7.43 -2.659,10.49c-1.773,3.059 -4.226,5.458 -7.361,7.196c-3.135,1.739 -6.682,2.608 -10.641,2.608Zm-0,-6.303c2.582,0 4.879,-0.574 6.891,-1.723c2.013,-1.149 3.6,-2.781 4.763,-4.898c1.162,-2.116 1.744,-4.572 1.744,-7.367c-0,-2.835 -0.582,-5.298 -1.744,-7.39c-1.163,-2.091 -2.75,-3.71 -4.763,-4.855c-2.012,-1.145 -4.299,-1.717 -6.86,-1.717c-2.561,-0 -4.846,0.572 -6.855,1.717c-2.009,1.145 -3.607,2.764 -4.794,4.855c-1.187,2.092 -1.78,4.555 -1.78,7.39c-0,2.795 0.593,5.251 1.78,7.367c1.187,2.117 2.784,3.749 4.79,4.898c2.005,1.149 4.281,1.723 6.828,1.723Z" style="fill:#fff8f8;fill-rule:nonzero;"/><path d="M1792.61,2327.24l0,-39.726l6.884,0l-0,10.789l-0.721,-2.696c1.134,-2.766 2.993,-4.876 5.576,-6.328c2.583,-1.453 5.786,-2.179 9.609,-2.179l0,7.01c-0.303,-0.042 -0.587,-0.074 -0.852,-0.095c-0.266,-0.021 -0.533,-0.032 -0.801,-0.032c-3.848,0 -6.892,1.15 -9.133,3.45c-2.241,2.299 -3.362,5.644 -3.362,10.034l0,19.773l-7.2,-0Z" style="fill:#fff8f8;fill-rule:nonzero;"/><path d="M1826.38,2317.65l0.19,-9.211l22.834,-20.929l8.762,0l-17.572,17.225l-3.924,3.306l-10.29,9.609Zm-5.788,9.586l0,-55.65l7.2,-0l0,55.65l-7.2,-0Zm30.381,-0l-15.616,-19.316l4.62,-5.778l19.787,25.094l-8.791,-0Z" style="fill:#fff8f8;fill-rule:nonzero;"/><path d="M1879.53,2327.65c-4.257,-0 -7.993,-0.869 -11.21,-2.608c-3.216,-1.738 -5.715,-4.137 -7.496,-7.196c-1.781,-3.06 -2.671,-6.553 -2.671,-10.479c0,-3.935 0.86,-7.428 2.579,-10.48c1.719,-3.052 4.089,-5.447 7.109,-7.185c3.02,-1.738 6.442,-2.607 10.264,-2.607c3.822,-0 7.212,0.854 10.169,2.564c2.958,1.709 5.277,4.098 6.957,7.167c1.681,3.07 2.521,6.648 2.521,10.735c-0,0.304 -0.011,0.66 -0.032,1.069c-0.021,0.409 -0.052,0.79 -0.095,1.144l-33.833,-0l0,-5.226l30.032,0l-2.881,1.822c0.042,-2.556 -0.492,-4.825 -1.605,-6.807c-1.112,-1.982 -2.631,-3.537 -4.557,-4.664c-1.926,-1.128 -4.151,-1.692 -6.676,-1.692c-2.516,0 -4.75,0.564 -6.701,1.692c-1.951,1.127 -3.47,2.693 -4.557,4.696c-1.087,2.003 -1.631,4.325 -1.631,6.964l-0,1.188c-0,2.663 0.606,5.021 1.818,7.074c1.212,2.053 2.915,3.654 5.108,4.803c2.194,1.149 4.72,1.723 7.578,1.723c2.347,0 4.493,-0.394 6.438,-1.183c1.945,-0.788 3.629,-1.993 5.052,-3.613l3.964,4.66c-1.785,2.1 -4.011,3.698 -6.681,4.795c-2.669,1.096 -5.656,1.644 -8.963,1.644Z" style="fill:#fff8f8;fill-rule:nonzero;"/><path d="M1905.86,2327.24l0,-39.726l6.884,0l-0,10.789l-0.721,-2.696c1.134,-2.766 2.993,-4.876 5.576,-6.328c2.583,-1.453 5.786,-2.179 9.609,-2.179l0,7.01c-0.303,-0.042 -0.587,-0.074 -0.852,-0.095c-0.266,-0.021 -0.533,-0.032 -0.801,-0.032c-3.848,0 -6.892,1.15 -9.133,3.45c-2.241,2.299 -3.362,5.644 -3.362,10.034l0,19.773l-7.2,-0Z" style="fill:#fff8f8;fill-rule:nonzero;"/></g><g><rect x="1599.53" y="2483.44" width="412.932" height="229.121" style="fill:#a8ff56;fill-opacity:0.53;stroke:#fff;stroke-width:8.33px;"/><path d="M1693.54,2618.9l-14.799,-39.725l6.821,0l13.121,35.952l-3.197,0l13.6,-35.952l6.112,0l13.347,35.952l-3.197,0l13.438,-35.952l6.452,0l-14.862,39.725l-6.86,0l-12.524,-32.853l2.109,-0l-12.713,32.853l-6.848,0Z" style="fill:#fff8f8;fill-rule:nonzero;"/><path d="M1763.84,2619.32c-3.962,0 -7.497,-0.869 -10.606,-2.607c-3.108,-1.738 -5.562,-4.141 -7.36,-7.208c-1.798,-3.067 -2.697,-6.56 -2.697,-10.478c0,-3.97 0.903,-7.471 2.709,-10.503c1.806,-3.032 4.254,-5.417 7.346,-7.154c3.091,-1.736 6.627,-2.605 10.608,-2.605c3.979,0 7.529,0.867 10.648,2.601c3.119,1.734 5.568,4.115 7.346,7.142c1.778,3.028 2.667,6.534 2.667,10.519c-0,3.934 -0.886,7.43 -2.659,10.489c-1.773,3.06 -4.226,5.459 -7.361,7.197c-3.135,1.738 -6.682,2.607 -10.641,2.607Zm-0,-6.302c2.582,-0 4.879,-0.574 6.891,-1.723c2.013,-1.149 3.6,-2.782 4.763,-4.898c1.162,-2.117 1.744,-4.572 1.744,-7.368c-0,-2.834 -0.582,-5.297 -1.744,-7.389c-1.163,-2.092 -2.75,-3.71 -4.763,-4.855c-2.012,-1.145 -4.299,-1.717 -6.86,-1.717c-2.561,-0 -4.846,0.572 -6.855,1.717c-2.009,1.145 -3.607,2.763 -4.794,4.855c-1.187,2.092 -1.78,4.555 -1.78,7.389c-0,2.796 0.593,5.251 1.78,7.368c1.187,2.116 2.784,3.749 4.79,4.898c2.005,1.149 4.281,1.723 6.828,1.723Z" style="fill:#fff8f8;fill-rule:nonzero;"/><path d="M1792.61,2618.9l0,-39.725l6.884,0l-0,10.788l-0.721,-2.695c1.134,-2.766 2.993,-4.876 5.576,-6.329c2.583,-1.452 5.786,-2.179 9.609,-2.179l0,7.01c-0.303,-0.042 -0.587,-0.073 -0.852,-0.095c-0.266,-0.021 -0.533,-0.031 -0.801,-0.031c-3.848,-0 -6.892,1.15 -9.133,3.449c-2.241,2.3 -3.362,5.645 -3.362,10.034l0,19.773l-7.2,0Z" style="fill:#fff8f8;fill-rule:nonzero;"/><path d="M1826.38,2609.32l0.19,-9.211l22.834,-20.929l8.762,0l-17.572,17.224l-3.924,3.306l-10.29,9.61Zm-5.788,9.585l0,-55.65l7.2,0l0,55.65l-7.2,0Zm30.381,0l-15.616,-19.316l4.62,-5.777l19.787,25.093l-8.791,0Z" style="fill:#fff8f8;fill-rule:nonzero;"/><path d="M1879.53,2619.32c-4.257,0 -7.993,-0.869 -11.21,-2.607c-3.216,-1.738 -5.715,-4.137 -7.496,-7.197c-1.781,-3.059 -2.671,-6.552 -2.671,-10.478c0,-3.935 0.86,-7.428 2.579,-10.48c1.719,-3.052 4.089,-5.447 7.109,-7.185c3.02,-1.739 6.442,-2.608 10.264,-2.608c3.822,0 7.212,0.855 10.169,2.564c2.958,1.71 5.277,4.099 6.957,7.168c1.681,3.069 2.521,6.648 2.521,10.735c-0,0.303 -0.011,0.659 -0.032,1.068c-0.021,0.409 -0.052,0.791 -0.095,1.145l-33.833,-0l0,-5.226l30.032,0l-2.881,1.821c0.042,-2.555 -0.492,-4.824 -1.605,-6.806c-1.112,-1.982 -2.631,-3.537 -4.557,-4.665c-1.926,-1.127 -4.151,-1.691 -6.676,-1.691c-2.516,-0 -4.75,0.564 -6.701,1.691c-1.951,1.128 -3.47,2.694 -4.557,4.697c-1.087,2.003 -1.631,4.324 -1.631,6.964l-0,1.187c-0,2.663 0.606,5.022 1.818,7.075c1.212,2.053 2.915,3.654 5.108,4.803c2.194,1.149 4.72,1.723 7.578,1.723c2.347,-0 4.493,-0.394 6.438,-1.183c1.945,-0.789 3.629,-1.993 5.052,-3.613l3.964,4.66c-1.785,2.1 -4.011,3.698 -6.681,4.794c-2.669,1.096 -5.656,1.644 -8.963,1.644Z" style="fill:#fff8f8;fill-rule:nonzero;"/><path d="M1905.86,2618.9l0,-39.725l6.884,0l-0,10.788l-0.721,-2.695c1.134,-2.766 2.993,-4.876 5.576,-6.329c2.583,-1.452 5.786,-2.179 9.609,-2.179l0,7.01c-0.303,-0.042 -0.587,-0.073 -0.852,-0.095c-0.266,-0.021 -0.533,-0.031 -0.801,-0.031c-3.848,-0 -6.892,1.15 -9.133,3.449c-2.241,2.3 -3.362,5.645 -3.362,10.034l0,19.773l-7.2,0Z" style="fill:#fff8f8;fill-rule:nonzero;"/></g><g><rect x="2078.7" y="2191.77" width="412.932" height="229.121" style="fill:#a8ff56;fill-opacity:0.53;stroke:#fff;stroke-width:8.33px;"/><path d="M2172.71,2327.24l-14.798,-39.726l6.82,0l13.122,35.952l-3.197,0l13.599,-35.952l6.113,0l13.346,35.952l-3.196,0l13.437,-35.952l6.453,0l-14.862,39.726l-6.86,-0l-12.524,-32.854l2.108,0l-12.712,32.854l-6.849,-0Z" style="fill:#fff8f8;fill-rule:nonzero;"/><path d="M2243,2327.65c-3.961,-0 -7.497,-0.869 -10.605,-2.608c-3.109,-1.738 -5.562,-4.141 -7.36,-7.208c-1.798,-3.067 -2.697,-6.56 -2.697,-10.478c-0,-3.969 0.903,-7.47 2.709,-10.503c1.805,-3.032 4.254,-5.417 7.345,-7.153c3.092,-1.737 6.628,-2.605 10.608,-2.605c3.98,-0 7.529,0.867 10.648,2.601c3.12,1.734 5.568,4.114 7.346,7.142c1.779,3.027 2.668,6.533 2.668,10.518c-0,3.934 -0.887,7.43 -2.659,10.49c-1.773,3.059 -4.227,5.458 -7.362,7.196c-3.134,1.739 -6.681,2.608 -10.641,2.608Zm0,-6.303c2.582,0 4.88,-0.574 6.892,-1.723c2.013,-1.149 3.6,-2.781 4.763,-4.898c1.162,-2.116 1.743,-4.572 1.743,-7.367c0,-2.835 -0.581,-5.298 -1.743,-7.39c-1.163,-2.091 -2.75,-3.71 -4.763,-4.855c-2.012,-1.145 -4.299,-1.717 -6.86,-1.717c-2.561,-0 -4.846,0.572 -6.855,1.717c-2.009,1.145 -3.607,2.764 -4.794,4.855c-1.187,2.092 -1.781,4.555 -1.781,7.39c0,2.795 0.594,5.251 1.781,7.367c1.187,2.117 2.783,3.749 4.789,4.898c2.006,1.149 4.282,1.723 6.828,1.723Z" style="fill:#fff8f8;fill-rule:nonzero;"/><path d="M2271.78,2327.24l-0,-39.726l6.883,0l0,10.789l-0.72,-2.696c1.134,-2.766 2.993,-4.876 5.575,-6.328c2.583,-1.453 5.786,-2.179 9.61,-2.179l-0,7.01c-0.303,-0.042 -0.587,-0.074 -0.853,-0.095c-0.265,-0.021 -0.532,-0.032 -0.801,-0.032c-3.847,0 -6.892,1.15 -9.133,3.45c-2.241,2.299 -3.361,5.644 -3.361,10.034l-0,19.773l-7.2,-0Z" style="fill:#fff8f8;fill-rule:nonzero;"/><path d="M2305.54,2317.65l0.19,-9.211l22.834,-20.929l8.762,0l-17.573,17.225l-3.923,3.306l-10.29,9.609Zm-5.788,9.586l-0,-55.65l7.2,-0l-0,55.65l-7.2,-0Zm30.381,-0l-15.617,-19.316l4.621,-5.778l19.787,25.094l-8.791,-0Z" style="fill:#fff8f8;fill-rule:nonzero;"/><path d="M2358.69,2327.65c-4.257,-0 -7.994,-0.869 -11.21,-2.608c-3.216,-1.738 -5.715,-4.137 -7.496,-7.196c-1.781,-3.06 -2.671,-6.553 -2.671,-10.479c-0,-3.935 0.859,-7.428 2.578,-10.48c1.72,-3.052 4.089,-5.447 7.11,-7.185c3.02,-1.738 6.441,-2.607 10.264,-2.607c3.822,-0 7.212,0.854 10.169,2.564c2.957,1.709 5.276,4.098 6.957,7.167c1.68,3.07 2.521,6.648 2.521,10.735c-0,0.304 -0.011,0.66 -0.032,1.069c-0.021,0.409 -0.053,0.79 -0.095,1.144l-33.833,-0l-0,-5.226l30.031,0l-2.88,1.822c0.042,-2.556 -0.493,-4.825 -1.605,-6.807c-1.112,-1.982 -2.631,-3.537 -4.557,-4.664c-1.927,-1.128 -4.152,-1.692 -6.676,-1.692c-2.516,0 -4.75,0.564 -6.701,1.692c-1.951,1.127 -3.471,2.693 -4.558,4.696c-1.087,2.003 -1.63,4.325 -1.63,6.964l-0,1.188c-0,2.663 0.606,5.021 1.818,7.074c1.212,2.053 2.915,3.654 5.108,4.803c2.193,1.149 4.719,1.723 7.578,1.723c2.347,0 4.493,-0.394 6.438,-1.183c1.945,-0.788 3.629,-1.993 5.052,-3.613l3.963,4.66c-1.784,2.1 -4.011,3.698 -6.68,4.795c-2.669,1.096 -5.657,1.644 -8.963,1.644Z" style="fill:#fff8f8;fill-rule:nonzero;"/><path d="M2385.03,2327.24l-0,-39.726l6.883,0l0,10.789l-0.72,-2.696c1.134,-2.766 2.993,-4.876 5.575,-6.328c2.583,-1.453 5.786,-2.179 9.61,-2.179l-0,7.01c-0.303,-0.042 -0.587,-0.074 -0.853,-0.095c-0.265,-0.021 -0.532,-0.032 -0.801,-0.032c-3.847,0 -6.892,1.15 -9.133,3.45c-2.241,2.299 -3.361,5.644 -3.361,10.034l-0,19.773l-7.2,-0Z" style="fill:#fff8f8;fill-rule:nonzero;"/></g><g><rect x="2078.7" y="2483.44" width="412.932" height="229.121" style="fill:#a8ff56;fill-opacity:0.53;stroke:#fff;stroke-width:8.33px;"/><path d="M2172.71,2618.9l-14.798,-39.725l6.82,0l13.122,35.952l-3.197,0l13.599,-35.952l6.113,0l13.346,35.952l-3.196,0l13.437,-35.952l6.453,0l-14.862,39.725l-6.86,0l-12.524,-32.853l2.108,-0l-12.712,32.853l-6.849,0Z" style="fill:#fff8f8;fill-rule:nonzero;"/><path d="M2243,2619.32c-3.961,0 -7.497,-0.869 -10.605,-2.607c-3.109,-1.738 -5.562,-4.141 -7.36,-7.208c-1.798,-3.067 -2.697,-6.56 -2.697,-10.478c-0,-3.97 0.903,-7.471 2.709,-10.503c1.805,-3.032 4.254,-5.417 7.345,-7.154c3.092,-1.736 6.628,-2.605 10.608,-2.605c3.98,0 7.529,0.867 10.648,2.601c3.12,1.734 5.568,4.115 7.346,7.142c1.779,3.028 2.668,6.534 2.668,10.519c-0,3.934 -0.887,7.43 -2.659,10.489c-1.773,3.06 -4.227,5.459 -7.362,7.197c-3.134,1.738 -6.681,2.607 -10.641,2.607Zm0,-6.302c2.582,-0 4.88,-0.574 6.892,-1.723c2.013,-1.149 3.6,-2.782 4.763,-4.898c1.162,-2.117 1.743,-4.572 1.743,-7.368c0,-2.834 -0.581,-5.297 -1.743,-7.389c-1.163,-2.092 -2.75,-3.71 -4.763,-4.855c-2.012,-1.145 -4.299,-1.717 -6.86,-1.717c-2.561,-0 -4.846,0.572 -6.855,1.717c-2.009,1.145 -3.607,2.763 -4.794,4.855c-1.187,2.092 -1.781,4.555 -1.781,7.389c0,2.796 0.594,5.251 1.781,7.368c1.187,2.116 2.783,3.749 4.789,4.898c2.006,1.149 4.282,1.723 6.828,1.723Z" style="fill:#fff8f8;fill-rule:nonzero;"/><path d="M2271.78,2618.9l-0,-39.725l6.883,0l0,10.788l-0.72,-2.695c1.134,-2.766 2.993,-4.876 5.575,-6.329c2.583,-1.452 5.786,-2.179 9.61,-2.179l-0,7.01c-0.303,-0.042 -0.587,-0.073 -0.853,-0.095c-0.265,-0.021 -0.532,-0.031 -0.801,-0.031c-3.847,-0 -6.892,1.15 -9.133,3.449c-2.241,2.3 -3.361,5.645 -3.361,10.034l-0,19.773l-7.2,0Z" style="fill:#fff8f8;fill-rule:nonzero;"/><path d="M2305.54,2609.32l0.19,-9.211l22.834,-20.929l8.762,0l-17.573,17.224l-3.923,3.306l-10.29,9.61Zm-5.788,9.585l-0,-55.65l7.2,0l-0,55.65l-7.2,0Zm30.381,0l-15.617,-19.316l4.621,-5.777l19.787,25.093l-8.791,0Z" style="fill:#fff8f8;fill-rule:nonzero;"/><path d="M2358.69,2619.32c-4.257,0 -7.994,-0.869 -11.21,-2.607c-3.216,-1.738 -5.715,-4.137 -7.496,-7.197c-1.781,-3.059 -2.671,-6.552 -2.671,-10.478c-0,-3.935 0.859,-7.428 2.578,-10.48c1.72,-3.052 4.089,-5.447 7.11,-7.185c3.02,-1.739 6.441,-2.608 10.264,-2.608c3.822,0 7.212,0.855 10.169,2.564c2.957,1.71 5.276,4.099 6.957,7.168c1.68,3.069 2.521,6.648 2.521,10.735c-0,0.303 -0.011,0.659 -0.032,1.068c-0.021,0.409 -0.053,0.791 -0.095,1.145l-33.833,-0l-0,-5.226l30.031,0l-2.88,1.821c0.042,-2.555 -0.493,-4.824 -1.605,-6.806c-1.112,-1.982 -2.631,-3.537 -4.557,-4.665c-1.927,-1.127 -4.152,-1.691 -6.676,-1.691c-2.516,-0 -4.75,0.564 -6.701,1.691c-1.951,1.128 -3.471,2.694 -4.558,4.697c-1.087,2.003 -1.63,4.324 -1.63,6.964l-0,1.187c-0,2.663 0.606,5.022 1.818,7.075c1.212,2.053 2.915,3.654 5.108,4.803c2.193,1.149 4.719,1.723 7.578,1.723c2.347,-0 4.493,-0.394 6.438,-1.183c1.945,-0.789 3.629,-1.993 5.052,-3.613l3.963,4.66c-1.784,2.1 -4.011,3.698 -6.68,4.794c-2.669,1.096 -5.657,1.644 -8.963,1.644Z" style="fill:#fff8f8;fill-rule:nonzero;"/><path d="M2385.03,2618.9l-0,-39.725l6.883,0l0,10.788l-0.72,-2.695c1.134,-2.766 2.993,-4.876 5.575,-6.329c2.583,-1.452 5.786,-2.179 9.61,-2.179l-0,7.01c-0.303,-0.042 -0.587,-0.073 -0.853,-0.095c-0.265,-0.021 -0.532,-0.031 -0.801,-0.031c-3.847,-0 -6.892,1.15 -9.133,3.449c-2.241,2.3 -3.361,5.645 -3.361,10.034l-0,19.773l-7.2,0Z" style="fill:#fff8f8;fill-rule:nonzero;"/></g><g><rect x="2620.07" y="2327.14" width="765.369" height="229.121" style="fill:#00abcd;fill-opacity:0.53;stroke:#fff;stroke-width:8.33px;"/><path d="M2840.08,2463.02c-3.319,0 -6.47,-0.447 -9.452,-1.342c-2.982,-0.894 -5.325,-1.99 -7.028,-3.286l3.053,-5.697c1.696,1.181 3.794,2.168 6.294,2.96c2.5,0.793 5.046,1.189 7.639,1.189c3.333,0 5.746,-0.483 7.24,-1.449c1.493,-0.967 2.24,-2.282 2.24,-3.945c-0,-1.258 -0.454,-2.235 -1.362,-2.93c-0.908,-0.695 -2.107,-1.224 -3.597,-1.589c-1.49,-0.364 -3.133,-0.678 -4.927,-0.944c-1.795,-0.266 -3.589,-0.609 -5.384,-1.03c-1.794,-0.421 -3.437,-1.026 -4.928,-1.814c-1.49,-0.789 -2.689,-1.873 -3.597,-3.253c-0.908,-1.381 -1.362,-3.209 -1.362,-5.486c0,-2.383 0.676,-4.473 2.027,-6.269c1.351,-1.796 3.261,-3.189 5.729,-4.182c2.468,-0.992 5.409,-1.488 8.82,-1.488c2.611,0 5.25,0.32 7.917,0.961c2.667,0.641 4.852,1.519 6.555,2.634l-3.054,5.697c-1.803,-1.166 -3.681,-1.977 -5.633,-2.432c-1.953,-0.456 -3.902,-0.684 -5.848,-0.684c-3.152,-0 -5.501,0.508 -7.046,1.524c-1.545,1.017 -2.317,2.324 -2.317,3.922c-0,1.351 0.454,2.389 1.361,3.113c0.908,0.723 2.107,1.29 3.597,1.7c1.491,0.41 3.133,0.747 4.928,1.013c1.794,0.266 3.587,0.609 5.377,1.03c1.791,0.421 3.432,1.013 4.922,1.777c1.491,0.763 2.69,1.821 3.598,3.173c0.908,1.352 1.362,3.141 1.362,5.367c-0,2.414 -0.694,4.5 -2.082,6.258c-1.388,1.757 -3.356,3.113 -5.903,4.069c-2.547,0.955 -5.594,1.433 -9.139,1.433Z" style="fill:#fff8f8;fill-rule:nonzero;"/><path d="M2880.67,2463.02c-4.031,0 -7.631,-0.869 -10.802,-2.607c-3.17,-1.739 -5.654,-4.135 -7.452,-7.191c-1.798,-3.055 -2.697,-6.55 -2.697,-10.485c-0,-3.976 0.899,-7.482 2.697,-10.517c1.798,-3.034 4.282,-5.419 7.452,-7.153c3.171,-1.735 6.771,-2.602 10.802,-2.602c3.602,0 6.816,0.715 9.642,2.145c2.827,1.43 5.022,3.554 6.588,6.372l-5.484,3.469c-1.289,-1.923 -2.869,-3.352 -4.739,-4.284c-1.87,-0.933 -3.893,-1.4 -6.071,-1.4c-2.59,0 -4.914,0.573 -6.973,1.718c-2.059,1.145 -3.682,2.763 -4.869,4.855c-1.187,2.092 -1.781,4.557 -1.781,7.397c0,2.84 0.594,5.306 1.781,7.397c1.187,2.092 2.81,3.712 4.869,4.861c2.059,1.148 4.383,1.723 6.973,1.723c2.178,-0 4.201,-0.458 6.071,-1.373c1.87,-0.915 3.45,-2.352 4.739,-4.31l5.484,3.468c-1.566,2.776 -3.761,4.889 -6.588,6.34c-2.826,1.452 -6.04,2.177 -9.642,2.177Z" style="fill:#fff8f8;fill-rule:nonzero;"/><path d="M2924.73,2422.46c3.243,0 6.098,0.623 8.567,1.869c2.47,1.246 4.415,3.143 5.838,5.691c1.423,2.548 2.134,5.783 2.134,9.705l0,22.875l-7.2,0l0,-22.051c0,-3.871 -0.94,-6.782 -2.82,-8.733c-1.88,-1.951 -4.535,-2.927 -7.964,-2.927c-2.513,-0 -4.72,0.508 -6.621,1.524c-1.901,1.016 -3.365,2.498 -4.39,4.445c-1.025,1.947 -1.538,4.359 -1.538,7.237l-0,20.505l-7.2,0l-0,-55.65l7.2,0l-0,26.633l-1.48,-2.821c1.319,-2.64 3.325,-4.684 6.02,-6.131c2.694,-1.447 5.846,-2.171 9.454,-2.171Z" style="fill:#fff8f8;fill-rule:nonzero;"/><path d="M2971.32,2463.02c-4.257,0 -7.994,-0.869 -11.21,-2.607c-3.216,-1.739 -5.715,-4.137 -7.496,-7.197c-1.781,-3.059 -2.671,-6.552 -2.671,-10.479c-0,-3.934 0.859,-7.427 2.579,-10.479c1.719,-3.052 4.088,-5.447 7.109,-7.186c3.02,-1.738 6.441,-2.607 10.264,-2.607c3.822,0 7.212,0.855 10.169,2.564c2.958,1.709 5.276,4.099 6.957,7.168c1.68,3.069 2.521,6.647 2.521,10.735c-0,0.303 -0.011,0.659 -0.032,1.068c-0.021,0.409 -0.053,0.79 -0.095,1.144l-33.833,0l-0,-5.225l30.032,-0l-2.881,1.821c0.042,-2.555 -0.493,-4.824 -1.605,-6.806c-1.112,-1.982 -2.631,-3.537 -4.557,-4.665c-1.926,-1.128 -4.152,-1.691 -6.676,-1.691c-2.516,-0 -4.75,0.563 -6.701,1.691c-1.951,1.128 -3.471,2.693 -4.558,4.696c-1.087,2.004 -1.63,4.325 -1.63,6.965l-0,1.187c-0,2.663 0.606,5.021 1.818,7.075c1.212,2.053 2.915,3.654 5.108,4.803c2.193,1.148 4.719,1.723 7.578,1.723c2.347,-0 4.493,-0.395 6.438,-1.183c1.945,-0.789 3.629,-1.993 5.052,-3.614l3.964,4.661c-1.785,2.1 -4.012,3.698 -6.681,4.794c-2.669,1.096 -5.657,1.644 -8.963,1.644Z" style="fill:#fff8f8;fill-rule:nonzero;"/><path d="M3014.06,2463.02c-3.846,0 -7.288,-0.848 -10.328,-2.544c-3.04,-1.696 -5.427,-4.063 -7.162,-7.102c-1.735,-3.038 -2.602,-6.584 -2.602,-10.637c-0,-4.061 0.867,-7.608 2.602,-10.638c1.735,-3.03 4.122,-5.394 7.162,-7.09c3.04,-1.696 6.482,-2.544 10.328,-2.544c3.339,0 6.366,0.753 9.082,2.259c2.715,1.507 4.886,3.754 6.511,6.742c1.625,2.988 2.437,6.746 2.437,11.271c0,4.475 -0.791,8.222 -2.374,11.239c-1.583,3.018 -3.732,5.279 -6.448,6.785c-2.715,1.506 -5.785,2.259 -9.208,2.259Zm0.57,-6.302c2.54,-0 4.816,-0.575 6.829,-1.723c2.012,-1.149 3.61,-2.782 4.794,-4.898c1.184,-2.117 1.775,-4.57 1.775,-7.36c0,-2.84 -0.591,-5.305 -1.775,-7.397c-1.184,-2.092 -2.782,-3.71 -4.794,-4.855c-2.013,-1.145 -4.289,-1.718 -6.829,-1.718c-2.54,0 -4.814,0.573 -6.823,1.718c-2.009,1.145 -3.607,2.763 -4.794,4.855c-1.187,2.092 -1.781,4.557 -1.781,7.397c0,2.79 0.594,5.243 1.781,7.36c1.187,2.116 2.785,3.749 4.794,4.898c2.009,1.148 4.283,1.723 6.823,1.723Zm13.588,5.887l0,-10.702l0.434,-9.241l-0.75,-9.24l-0,-26.467l7.2,0l-0,55.65l-6.884,0Z" style="fill:#fff8f8;fill-rule:nonzero;"/><path d="M3064.7,2463.02c-3.428,0 -6.424,-0.623 -8.989,-1.869c-2.564,-1.246 -4.558,-3.154 -5.981,-5.722c-1.423,-2.569 -2.134,-5.794 -2.134,-9.674l0,-22.875l7.2,-0l0,22.052c0,3.871 0.934,6.782 2.8,8.733c1.867,1.951 4.505,2.926 7.915,2.926c2.489,0 4.656,-0.508 6.499,-1.524c1.844,-1.016 3.274,-2.51 4.292,-4.482c1.018,-1.972 1.527,-4.372 1.527,-7.2l0,-20.505l7.2,-0l0,39.725l-6.883,0l-0,-10.697l1.163,2.822c-1.311,2.632 -3.264,4.672 -5.858,6.119c-2.595,1.447 -5.511,2.171 -8.751,2.171Z" style="fill:#fff8f8;fill-rule:nonzero;"/><rect x="3097.78" y="2406.95" width="7.2" height="55.65" style="fill:#fff8f8;fill-rule:nonzero;"/><path d="M3134.22,2463.02c-4.257,0 -7.994,-0.869 -11.21,-2.607c-3.216,-1.739 -5.715,-4.137 -7.496,-7.197c-1.781,-3.059 -2.671,-6.552 -2.671,-10.479c-0,-3.934 0.859,-7.427 2.579,-10.479c1.719,-3.052 4.088,-5.447 7.109,-7.186c3.02,-1.738 6.441,-2.607 10.264,-2.607c3.822,0 7.212,0.855 10.169,2.564c2.958,1.709 5.276,4.099 6.957,7.168c1.68,3.069 2.521,6.647 2.521,10.735c-0,0.303 -0.011,0.659 -0.032,1.068c-0.021,0.409 -0.053,0.79 -0.095,1.144l-33.833,0l-0,-5.225l30.032,-0l-2.881,1.821c0.042,-2.555 -0.493,-4.824 -1.605,-6.806c-1.112,-1.982 -2.631,-3.537 -4.557,-4.665c-1.926,-1.128 -4.152,-1.691 -6.676,-1.691c-2.516,-0 -4.75,0.563 -6.701,1.691c-1.951,1.128 -3.471,2.693 -4.558,4.696c-1.087,2.004 -1.63,4.325 -1.63,6.965l-0,1.187c-0,2.663 0.606,5.021 1.818,7.075c1.212,2.053 2.915,3.654 5.108,4.803c2.193,1.148 4.719,1.723 7.578,1.723c2.347,-0 4.493,-0.395 6.438,-1.183c1.945,-0.789 3.629,-1.993 5.052,-3.614l3.964,4.661c-1.785,2.1 -4.012,3.698 -6.681,4.794c-2.669,1.096 -5.657,1.644 -8.963,1.644Z" style="fill:#fff8f8;fill-rule:nonzero;"/><path d="M3160.56,2462.6l-0,-39.725l6.883,-0l0,10.788l-0.72,-2.695c1.134,-2.767 2.993,-4.876 5.576,-6.329c2.582,-1.453 5.785,-2.179 9.609,-2.179l-0,7.01c-0.303,-0.042 -0.587,-0.074 -0.853,-0.095c-0.265,-0.021 -0.532,-0.031 -0.801,-0.031c-3.847,-0 -6.892,1.149 -9.133,3.449c-2.241,2.3 -3.361,5.644 -3.361,10.034l-0,19.773l-7.2,0Z" style="fill:#fff8f8;fill-rule:nonzero;"/></g><path d="M1932.6,1158.83l-40.133,-12.132l33.785,-24.827c-7.653,10.827 -4.479,29.306 6.348,36.959Z" style="fill:#fff;"/><path d="M2535.96,1036.16c0,0 -487.657,83.763 -613.931,105.453" style="fill:none;stroke:#fff;stroke-width:12.5px;stroke-linecap:butt;"/><path d="M2995.85,880.332l-38.953,15.507l10.966,-40.467c0.757,13.237 14.75,25.717 27.987,24.96Z" style="fill:#fff;"/><path d="M3243.26,574.754c0,-0 -201.39,225.81 -266.393,298.695" style="fill:none;stroke:#fff;stroke-width:12.5px;stroke-linecap:butt;"/><path d="M2500.58,1388.04l41.398,-6.638l-30.149,-29.135c6.131,11.755 0.507,29.642 -11.249,35.773Z" style="fill:#fff;"/><path d="M2513.36,1372.4c-124.45,-39.134 -612.346,-192.557 -612.346,-192.557" style="fill:none;stroke:#fff;stroke-width:12.5px;stroke-linecap:butt;"/><path d="M2987.86,2252.26l22.184,35.576l15.15,-39.093c-8.454,10.213 -27.121,11.971 -37.334,3.517Z" style="fill:#fff;"/><path d="M3007.23,2257.96c-13.705,-145.471 -72.809,-772.825 -72.809,-772.825" style="fill:none;stroke:#fff;stroke-width:12.5px;stroke-linecap:butt;"/><path d="M1829.43,2736.54l-13.658,-24.387l-11.315,25.558c5.951,-6.536 18.437,-7.121 24.973,-1.171Z" style="fill:#fff8f8;"/><path d="M2237.26,2738.96l24.339,-13.743l-3.609,27.717c-1.689,-8.676 -12.054,-15.663 -20.73,-13.974Z" style="fill:#fff8f8;"/><path d="M1816.71,2732.13c5.445,36.011 35.147,108.1 185.708,108.1c152.696,0 223.075,-66.582 248.003,-98.425" style="fill:none;stroke:#fff8f8;stroke-width:8.33px;stroke-linecap:butt;"/><path d="M1804.45,2139.67l11.315,25.558l13.658,-24.387c-6.536,5.951 -19.022,5.365 -24.973,-1.171Z" style="fill:#fff8f8;"/><path d="M2257.99,2124.44l3.609,27.717l-24.339,-13.743c8.676,1.689 19.041,-5.298 20.73,-13.974Z" style="fill:#fff8f8;"/><path d="M1816.71,2145.25c5.445,-36.01 35.147,-108.1 185.708,-108.1c152.696,-0 223.075,66.582 248.003,98.425" style="fill:none;stroke:#fff8f8;stroke-width:8.33px;stroke-linecap:butt;"/><g><path d="M899.66,2460.21l691.263,-132.44" style="fill:none;"/><path d="M932.962,2434.74l-33.302,25.471l40.359,11.359c-10.972,-7.443 -14.5,-25.858 -7.057,-36.83Z" style="fill:#9e9e9e;"/><path d="M929.124,2454.56c131.913,-25.273 661.799,-126.795 661.799,-126.795" style="fill:none;stroke:#9e9e9e;stroke-width:12.5px;stroke-linecap:butt;"/></g><g><path d="M762.275,1992.78l828.648,334.983" style="fill:none;"/><path d="M804.068,1989.46l-41.793,3.328l27.739,31.438c-5.178,-12.205 1.849,-29.588 14.054,-34.766Z" style="fill:#9e9e9e;"/><path d="M790.088,2004.03c144.278,58.325 800.835,323.739 800.835,323.739" style="fill:none;stroke:#9e9e9e;stroke-width:12.5px;stroke-linecap:butt;"/></g><g><path d="M908.239,2531.08l672.924,91.165" style="fill:none;"/><path d="M1546.52,2598.63l34.644,23.615l-39.678,13.546c10.549,-8.032 13.066,-26.612 5.034,-37.161Z" style="fill:#9e9e9e;"/><path d="M908.239,2531.08c0,-0 513.053,69.506 643.195,87.137" style="fill:none;stroke:#9e9e9e;stroke-width:12.5px;stroke-linecap:butt;"/></g><path d="M301.095,1820.7l33.396,28.363l58.58,19.507l57.608,8.486l44.223,1.653l53.313,-0.491l67.572,-11.301l64.469,-21.4l25.714,-26.306l1.425,304.631l-19.176,26.026l-49.836,22.202l-77.216,17.741l-97.817,0.914l-56.093,-11.434l-56.119,-12.494l-50.542,-33.984l0.499,-312.113Z" style="fill:#91a3b2;fill-opacity:0.72;"/><path d="M706.134,1811.82l0,310.843" style="fill:none;fill-rule:nonzero;stroke:#909090;stroke-opacity:0.63;stroke-width:8.06px;stroke-linejoin:miter;stroke-miterlimit:4;"/><path d="M300.06,2122.66l-0,-310.843" style="fill:none;fill-rule:nonzero;stroke:#909090;stroke-opacity:0.63;stroke-width:8.06px;stroke-linejoin:miter;stroke-miterlimit:4;"/><ellipse cx="503.097" cy="1811.82" rx="203.037" ry="66.609" style="fill:none;stroke:#909090;stroke-opacity:0.63;stroke-width:8.06px;stroke-linejoin:miter;stroke-miterlimit:4;"/><path d="M706.134,2122.66c0,36.857 -90.239,66.609 -203.037,66.609c-112.798,0 -203.037,-29.752 -203.037,-66.609" style="fill:none;fill-rule:nonzero;stroke:#909090;stroke-opacity:0.63;stroke-width:8.06px;stroke-linejoin:miter;stroke-miterlimit:4;"/><path d="M468.259,2073.85c-6.914,-0 -13.518,-1.061 -19.809,-3.183c-6.292,-2.122 -11.237,-4.855 -14.836,-8.198l4.758,-10.089c3.427,2.998 7.817,5.497 13.168,7.496c5.351,2 10.917,3 16.699,3c5.241,-0 9.496,-0.614 12.767,-1.842c3.271,-1.228 5.683,-2.898 7.236,-5.011c1.552,-2.113 2.329,-4.478 2.329,-7.093c-0,-3.145 -0.998,-5.668 -2.994,-7.569c-1.996,-1.901 -4.609,-3.424 -7.839,-4.568c-3.229,-1.144 -6.797,-2.157 -10.703,-3.039c-3.906,-0.883 -7.815,-1.895 -11.728,-3.039c-3.912,-1.143 -7.483,-2.629 -10.712,-4.456c-3.229,-1.827 -5.842,-4.26 -7.838,-7.3c-1.996,-3.04 -2.994,-6.966 -2.994,-11.78c0,-4.692 1.238,-8.999 3.714,-12.92c2.475,-3.922 6.278,-7.069 11.409,-9.442c5.131,-2.373 11.667,-3.56 19.61,-3.56c5.263,0 10.48,0.7 15.652,2.099c5.171,1.4 9.649,3.386 13.433,5.958l-4.26,10.257c-3.912,-2.527 -8.029,-4.382 -12.352,-5.566c-4.324,-1.184 -8.511,-1.776 -12.562,-1.776c-5.055,0 -9.214,0.654 -12.478,1.962c-3.264,1.308 -5.651,3.037 -7.161,5.187c-1.51,2.15 -2.265,4.575 -2.265,7.276c0,3.158 0.998,5.688 2.994,7.589c1.996,1.901 4.609,3.405 7.839,4.513c3.229,1.108 6.801,2.121 10.713,3.04c3.913,0.918 7.822,1.934 11.728,3.048c3.906,1.114 7.473,2.566 10.702,4.357c3.229,1.791 5.842,4.199 7.838,7.225c1.996,3.027 2.994,6.904 2.994,11.631c-0,4.62 -1.26,8.89 -3.778,12.811c-2.519,3.922 -6.372,7.066 -11.559,9.432c-5.187,2.366 -11.759,3.55 -19.715,3.55Z" style="fill:#fff8f8;fill-rule:nonzero;"/><path d="M538.637,2073.85c-6.446,-0 -12.649,-0.989 -18.609,-2.965c-5.959,-1.977 -10.865,-4.673 -14.715,-8.088l5.939,-10.199c3.082,2.853 7.03,5.188 11.845,7.006c4.815,1.817 9.959,2.726 15.431,2.726c6.781,0 12.041,-1.45 15.779,-4.35c3.738,-2.899 5.607,-6.778 5.607,-11.636c0,-4.784 -1.785,-8.608 -5.354,-11.472c-3.57,-2.864 -9.22,-4.296 -16.949,-4.296l-7.275,-0l-0,-9.146l26.831,-32.993l1.897,5.055l-49.596,-0l0,-11.192l59.824,-0l0,8.818l-26.831,32.993l-6.699,-4.071l4.232,0c10.98,0 19.204,2.455 24.674,7.364c5.469,4.909 8.204,11.186 8.204,18.831c0,5.072 -1.251,9.705 -3.754,13.898c-2.502,4.193 -6.282,7.528 -11.34,10.003c-5.058,2.476 -11.439,3.714 -19.141,3.714Z" style="fill:#fff8f8;fill-rule:nonzero;"/></svg>